<svg width="41" height="41" viewBox="0 0 41 41" fill="none" xmlns="http://www.w3.org/2000/svg">
  <path
    d="M23.9432 16.612C22.4512 15.12 22.4512 12.7008 23.9432 11.2088L10.936 24.2152C12.428 22.7232 14.8472 22.7232 16.3392 24.2152C17.8312 25.7072 17.8312 28.1264 16.3392 29.6184L29.3464 16.6112C27.8544 18.1032 25.4352 18.104 23.9432 16.612Z"
    fill="#3A2986"/>
  <path
    d="M20.1406 0.415039C9.10063 0.415039 0.140625 9.37504 0.140625 20.415C0.140625 31.455 9.10063 40.415 20.1406 40.415C31.1806 40.415 40.1406 31.455 40.1406 20.415C40.1406 9.37504 31.1806 0.415039 20.1406 0.415039ZM27.1822 27.4566C24.2502 30.3886 19.9462 31.1086 16.339 29.6206C14.847 31.1126 12.4278 31.1126 10.9358 29.6206C9.44383 28.1286 9.44383 25.7094 10.9358 24.2174C9.44783 20.6094 10.1678 16.3054 13.0998 13.3742C16.031 10.4422 20.3358 9.72224 23.943 11.2102C25.435 9.71824 27.8542 9.71824 29.3462 11.2102C30.8382 12.7022 30.8382 15.1214 29.3462 16.6134C30.8342 20.2214 30.1142 24.5254 27.1822 27.4566Z"
    fill="#3A2986"/>
</svg>
