<svg width="21" height="22" viewBox="0 0 21 22" fill="none" xmlns="http://www.w3.org/2000/svg">
<path d="M10.4231 2.73758C12.7645 0.394003 16.5635 0.394003 18.9067 2.73714C21.1897 5.02021 21.2483 8.68542 19.0823 11.0393L18.8941 11.2367L10.0941 20.0349L10.0575 20.0652C8.59629 21.3819 6.34229 21.3372 4.93492 19.9298C3.6159 18.6108 3.49378 16.5481 4.56857 15.0914C4.59191 15.046 4.62016 15.0023 4.65337 14.9612L4.70693 14.9015L4.79383 14.8138L4.93492 14.6659L4.93783 14.6688L12.3736 7.21447C12.6395 6.94785 13.0561 6.92309 13.35 7.14055L13.4343 7.21306C13.7009 7.47897 13.7256 7.8956 13.5082 8.1895L13.4357 8.27372L5.84103 15.8868C5.12339 16.7624 5.17327 18.0567 5.99067 18.8741C6.81973 19.7031 8.13938 19.7426 9.01518 18.9925L17.8479 10.162C19.6034 8.4044 19.6034 5.55516 17.846 3.7978C16.1436 2.09536 13.4164 2.04216 11.6499 3.6382L11.4821 3.7978L11.4695 3.81211L1.93316 13.3484C1.64027 13.6413 1.1654 13.6413 0.872499 13.3484C0.606239 13.0822 0.582029 12.6655 0.799879 12.3719L0.872499 12.2878L10.4214 2.73714L10.4231 2.73758Z" fill="#3A2986"/>
</svg>
