<svg width="17" height="20" viewBox="0 0 17 20" fill="none" xmlns="http://www.w3.org/2000/svg">
  <path
    d="M3.62634 1.5C2.72617 1.5 1.9981 2.17543 1.89 3.02738C1.95412 3.00954 2.0217 3 2.09151 3H15.0915C15.1613 3 15.2289 3.00954 15.293 3.02738C15.1849 2.17543 14.4569 1.5 13.5567 1.5H3.62634ZM3.44243 17.8306C3.4836 18.2114 3.80507 18.5 4.18809 18.5H12.9949C13.3779 18.5 13.6994 18.2114 13.7406 17.8306L15.1823 4.49456C15.1526 4.49815 15.1222 4.5 15.0915 4.5H2.09151C2.06077 4.5 2.03046 4.49815 2.0007 4.49456L3.44243 17.8306ZM0.39517 3.59932C0.18739 1.67734 1.69316 0 3.62634 0H13.5567C15.4899 0 16.9956 1.67733 16.7878 3.59932L15.2319 17.9918C15.1084 19.1342 14.144 20 12.9949 20H4.18809C3.03905 20 2.07462 19.1342 1.95112 17.9918L0.39517 3.59932ZM8.3837 8.4094C8.4827 8.2614 8.7003 8.2614 8.7993 8.4094L9.4681 9.4092C9.6985 9.7535 10.1643 9.8459 10.5085 9.6156C10.8528 9.3852 10.9452 8.9194 10.7149 8.5752L10.046 7.57538C9.353 6.53947 7.83 6.53946 7.137 7.57538L6.46814 8.5752C6.23782 8.9194 6.3302 9.3852 6.6745 9.6156C7.0188 9.8459 7.4846 9.7535 7.7149 9.4092L8.3837 8.4094ZM6.22738 10.5991C6.58257 10.8122 6.6977 11.2729 6.48463 11.6281L6.1205 12.2349C5.92054 12.5682 6.1606 12.9922 6.54925 12.9922H7.3415C7.7557 12.9922 8.0915 13.328 8.0915 13.7422C8.0915 14.1564 7.7557 14.4922 7.3415 14.4922H6.54925C4.99466 14.4922 4.03443 12.7962 4.83426 11.4632L5.19839 10.8563C5.4115 10.5011 5.8722 10.386 6.22738 10.5991ZM10.7005 11.6276C10.4876 11.2723 10.6031 10.8117 10.9584 10.5988C11.3138 10.3859 11.7744 10.5014 11.9872 10.8568L12.3512 11.4644C13.1498 12.7974 12.1895 14.4922 10.6355 14.4922H9.8415C9.4273 14.4922 9.0915 14.1564 9.0915 13.7422C9.0915 13.328 9.4273 12.9922 9.8415 12.9922H10.6355C11.024 12.9922 11.2641 12.5685 11.0645 12.2352L10.7005 11.6276Z"
    fill="#9895ba"/>
</svg>
