<svg width="121" height="36" viewBox="0 0 121 36" fill="none" xmlns="http://www.w3.org/2000/svg">
  <path d="M108.756 25.6583H106.075L109.326 10.3414H112.007L108.756 25.6583Z" fill="#16122C"/>
  <path
    d="M99.5689 10.3414H102.377L104.931 25.6583H102.208L101.722 22.4681H95.3467L93.5733 25.6583H90.6812L99.5689 10.3414ZM96.5711 20.2501H101.384L100.371 13.4473L96.5711 20.2501Z"
    fill="#16122C"/>
  <path
    d="M86.3777 11.2921H88.8899V14.2921H91.1699V16.109H88.8899V22.2991C88.8899 23.4611 89.1643 23.7358 90.2411 23.7358H91.1491V25.6584H89.2912C86.8634 25.6584 86.378 25.0034 86.378 22.6795V16.109H84.689V14.2921H86.378V11.2921H86.3777Z"
    fill="#16122C"/>
  <path
    d="M83.9603 16.8486C83.5383 16.8063 83.137 16.7852 82.7572 16.7852C81.1737 16.7852 80.2661 17.4189 80.2661 19.7008V25.6586H77.7539V14.2923H80.2238V16.3205C80.836 15.0529 81.9338 14.2923 83.3061 14.2712C83.4962 14.2712 83.7707 14.2923 83.9606 14.3135V16.8488L83.9603 16.8486Z"
    fill="#16122C"/>
  <path
    d="M67.2195 20.6938C67.3883 22.8064 68.8662 23.8417 70.302 23.8417C71.6108 23.8417 72.6453 23.3134 73.0886 22.2571H75.5585C75.0306 24.074 73.3418 25.9333 70.4074 25.9333C66.7551 25.9333 64.665 23.1447 64.665 19.8911C64.665 16.4685 67.0085 14.0389 70.2385 14.0389C73.7221 14.0389 75.8965 16.8699 75.6853 20.6938H67.2197H67.2195ZM67.2195 18.8556H73.1307C73.0674 17.081 71.7163 16.0034 70.2385 16.0034C69.0563 16.0034 67.4306 16.7006 67.2195 18.8556Z"
    fill="#16122C"/>
  <path
    d="M54.9287 10.3414V15.8133C55.6042 14.6936 56.7865 14.0386 58.3064 14.0386C60.9877 14.0386 63.2467 16.3416 63.2467 19.9752C63.2467 23.6301 60.9879 25.933 58.3064 25.933C56.7865 25.933 55.6042 25.278 54.9287 24.1584V25.6583H52.4165V10.3414H54.9287ZM57.7575 23.8837C59.4253 23.8837 60.6287 22.3837 60.6287 19.9752C60.6287 17.5879 59.4255 16.0879 57.7575 16.0879C56.1108 16.0879 54.8231 17.3556 54.8231 19.9752C54.8231 22.5948 56.1108 23.8837 57.7575 23.8837Z"
    fill="#16122C"/>
  <path d="M50.2963 10.3414V12.8767H47.7842V10.3414H50.2963ZM50.2963 14.2923V25.6586H47.7842V14.2923H50.2963Z"
        fill="#16122C"/>
  <path d="M38.6549 23.398H46.3605V25.6586H35.9736V10.3414H38.6547V23.3977L38.6549 23.398Z" fill="#16122C"/>
  <path d="M21.8423 9H15.8276V14.1419H21.8423V20.1611H26.9807V14.1419V9H21.8423Z" fill="url(#paint0_linear_17_503)"/>
  <path d="M20.9658 21.8578L15.8276 26.9999H21.8423L26.9807 21.8578H20.9658Z" fill="url(#paint1_linear_17_503)"/>
  <path d="M18.8346 21.8578H14.1318V9L8.99365 14.1419V26.9999H13.6965L18.8346 21.8578Z"
        fill="url(#paint2_linear_17_503)"/>
  <defs>
    <linearGradient id="paint0_linear_17_503" x1="8.77326" y1="27.2204" x2="26.5734" y2="9.43343"
                    gradientUnits="userSpaceOnUse">
      <stop stop-color="#644DF9"/>
      <stop offset="1" stop-color="#FCCBFF"/>
    </linearGradient>
    <linearGradient id="paint1_linear_17_503" x1="13.6939" y1="32.1446" x2="31.494" y2="14.3576"
                    gradientUnits="userSpaceOnUse">
      <stop stop-color="#644DF9"/>
      <stop offset="1" stop-color="#FCCBFF"/>
    </linearGradient>
    <linearGradient id="paint2_linear_17_503" x1="6.73683" y1="25.1825" x2="24.5367" y2="7.3955"
                    gradientUnits="userSpaceOnUse">
      <stop stop-color="#644DF9"/>
      <stop offset="1" stop-color="#FCCBFF"/>
    </linearGradient>
  </defs>
</svg>
