<svg width="15" height="20" viewBox="0 0 15 20" fill="none" xmlns="http://www.w3.org/2000/svg">
<path d="M14.0938 9C14.4734 9 14.7873 9.2822 14.837 9.6482L14.8438 9.75V10.25C14.8438 13.8094 12.0888 16.7254 8.59475 16.9817L8.59375 19.25C8.59375 19.6642 8.25795 20 7.84375 20C7.46405 20 7.15025 19.7178 7.10055 19.3518L7.09375 19.25V16.9818C3.67698 16.7316 0.96658 13.938 0.84781 10.4863L0.84375 10.25V9.75C0.84375 9.3358 1.17954 9 1.59375 9C1.97345 9 2.28724 9.2822 2.3369 9.6482L2.34375 9.75V10.25C2.34375 13.077 4.5782 15.3821 7.37735 15.4956L7.59375 15.5H8.09375C10.9207 15.5 13.2259 13.2656 13.3393 10.4664L13.3438 10.25V9.75C13.3438 9.3358 13.6796 9 14.0938 9ZM7.84375 0C10.0528 0 11.8438 1.79086 11.8438 4V10C11.8438 12.2091 10.0528 14 7.84375 14C5.63461 14 3.84375 12.2091 3.84375 10V4C3.84375 1.79086 5.63461 0 7.84375 0ZM7.84375 1.5C6.46305 1.5 5.34375 2.61929 5.34375 4V10C5.34375 11.3807 6.46305 12.5 7.84375 12.5C9.22445 12.5 10.3438 11.3807 10.3438 10V4C10.3438 2.61929 9.22445 1.5 7.84375 1.5Z" fill="#3A2986"/>
</svg>
