<svg width="41" height="41" viewBox="0 0 41 41" fill="none" xmlns="http://www.w3.org/2000/svg">
<path d="M20.4814 0.650818C9.44145 0.650818 0.481445 9.61082 0.481445 20.6508C0.481445 31.6908 9.44145 40.6508 20.4814 40.6508C31.5214 40.6508 40.4814 31.6908 40.4814 20.6508C40.4814 9.61082 31.5214 0.650818 20.4814 0.650818ZM29.7614 12.6508L25.8414 28.4108C25.6014 29.0508 25.0414 29.4508 24.4814 29.4508C24.2414 29.4508 23.9214 29.3708 23.6814 29.2108L19.3614 25.9308L16.7214 28.1708C16.6414 28.2508 16.5614 28.2508 16.5614 28.2508C16.4814 28.2508 16.3214 28.1708 16.3214 28.0908L13.5214 22.4908L8.88145 20.8908C8.32145 20.7308 8.32145 19.8508 8.88145 19.6908L29.0414 12.0108C29.1214 12.0108 29.2014 11.9308 29.2814 11.9308C29.5214 11.8508 29.8414 12.2508 29.7614 12.6508Z" fill="#3A2986"/>
<path d="M14.561 22.1728L16.641 26.5728L16.401 23.6128L25.761 15.4528L14.561 22.1728Z" fill="#3A2986"/>
</svg>
