<svg width="41" height="41" viewBox="0 0 41 41" fill="none" xmlns="http://www.w3.org/2000/svg">
  <path
    d="M20.7195 18.9788L14.9275 10.5636H11.8467L19.0091 20.9692L19.8875 22.246L26.0595 31.2132H29.1403L21.5987 20.2556L20.7195 18.9788Z"
    fill="#3A2986"/>
  <path
    d="M20.4814 0.886719C9.44145 0.886719 0.481445 9.84672 0.481445 20.8867C0.481445 31.9267 9.44145 40.8867 20.4814 40.8867C31.5214 40.8867 40.4814 31.9267 40.4814 20.8867C40.4814 9.84672 31.5214 0.886719 20.4814 0.886719ZM25.2486 32.7571L24.7878 32.0883L18.847 23.4571L10.8526 32.7571H8.88145L17.9678 22.1811L10.5742 11.4387L8.90785 9.01712H15.7406L16.2014 9.68672L21.7622 17.7651L27.5998 10.9707L29.287 9.01712H31.2582L22.6406 19.0427L30.4142 30.3363L32.0806 32.7579H25.2478L25.2486 32.7571Z"
    fill="#3A2986"/>
</svg>
