<svg xmlns="http://www.w3.org/2000/svg">
  <symbol id="chat" viewBox="0 0 24 24">
    <path
      d="M12 2C17.5228 2 22 6.47715 22 12C22 17.5228 17.5228 22 12 22C10.3817 22 8.81782 21.6146 7.41286 20.888L3.58704 21.9553C2.92212 22.141 2.23258 21.7525 2.04691 21.0876C1.98546 20.8676 1.98549 20.6349 2.04695 20.4151L3.11461 16.5922C2.38637 15.186 2 13.6203 2 12C2 6.47715 6.47715 2 12 2ZM12 3.5C7.30558 3.5 3.5 7.30558 3.5 12C3.5 13.4696 3.87277 14.8834 4.57303 16.1375L4.72368 16.4072L3.61096 20.3914L7.59755 19.2792L7.86709 19.4295C9.12006 20.1281 10.5322 20.5 12 20.5C16.6944 20.5 20.5 16.6944 20.5 12C20.5 7.30558 16.6944 3.5 12 3.5Z"
    />
  </symbol>
  <symbol id="download" viewBox="0 0 24 24">
    <path
      d="M18.2033 19.8516C18.5944 19.8515 18.9117 20.1684 18.9117 20.5596C18.9117 20.9507 18.5948 21.2679 18.2037 21.268L5.92814 21.2715C5.537 21.2716 5.21973 20.9546 5.21973 20.5635C5.21973 20.1724 5.5366 19.8552 5.92772 19.8551L18.2033 19.8516ZM11.9696 2.39368L12.0657 2.38721C12.4242 2.38721 12.7205 2.65363 12.7675 2.99931L12.7739 3.09541L12.773 16.0178L16.2873 12.5047C16.5388 12.2534 16.9323 12.2305 17.2095 12.4363L17.2889 12.5048C17.5403 12.7563 17.5632 13.1498 17.3574 13.427L17.2888 13.5064L12.5697 18.2246C12.3184 18.4758 11.9252 18.4988 11.648 18.2933L11.5685 18.2249L6.8439 13.5067C6.56715 13.2303 6.56683 12.7819 6.84322 12.5051C7.09447 12.2536 7.4879 12.2304 7.76529 12.436L7.84477 12.5045L11.3565 16.0112L11.3575 3.09541C11.3575 2.73687 11.624 2.44057 11.9696 2.39368Z"
    />
  </symbol>
  <symbol id="eye-slash" viewBox="0 0 330 330">
    <path d="M325.607,304.394l-63.479-63.479c38.57-29.035,63.522-64.92,65.247-67.437c3.501-5.11,3.501-11.846,0-16.956
  	c-2.925-4.269-72.659-104.544-162.371-104.544c-25.872,0-50.075,8.345-71.499,20.313L25.607,4.394
  	c-5.857-5.858-15.355-5.858-21.213,0c-5.858,5.858-5.858,15.355,0,21.213l63.478,63.478C29.299,118.12,4.35,154.006,2.625,156.523
  	c-3.5,5.109-3.5,11.845,0,16.955c2.925,4.268,72.65,104.546,162.378,104.546c25.868,0,50.069-8.345,71.493-20.314l67.897,67.898
  	C307.323,328.536,311.161,330,315,330c3.839,0,7.678-1.464,10.606-4.394C331.465,319.749,331.465,310.252,325.607,304.394z
  	 M165.003,81.977c60.26,0,113.408,60.338,131.257,83.022c-9.673,12.294-29.705,35.629-55.609,54.439L115.673,94.461
  	C131.079,86.902,147.736,81.977,165.003,81.977z M165.003,248.023c-60.285,0-113.439-60.364-131.273-83.037
  	c9.651-12.303,29.652-35.658,55.574-54.47l124.99,124.99C198.884,243.084,182.236,248.023,165.003,248.023z"
    />
  </symbol>
  <symbol id="eye" viewBox="0 0 24 24">
    <path
      d="M15 12c0 1.654-1.346 3-3 3s-3-1.346-3-3 1.346-3 3-3 3 1.346 3 3zm9-.449s-4.252 8.449-11.985 8.449c-7.18 0-12.015-8.449-12.015-8.449s4.446-7.551 12.015-7.551c7.694 0 11.985 7.551 11.985 7.551zm-7 .449c0-2.757-2.243-5-5-5s-5 2.243-5 5 2.243 5 5 5 5-2.243 5-5z"
    />
  </symbol>
  <symbol id="attachment" viewBox="0 0 24 24">
    <path
      d="M11.7702 3.75774C14.1116 1.41416 17.9106 1.41416 20.2538 3.7573C22.5368 6.04037 22.5954 9.70558 20.4294 12.0595L20.2412 12.2569L11.4412 21.0551L11.4046 21.0854C9.94346 22.4021 7.68946 22.3574 6.28209 20.95C4.96307 19.631 4.84095 17.5683 5.91574 16.1116C5.93908 16.0662 5.96733 16.0225 6.00054 15.9814L6.0541 15.9217L6.141 15.834L6.28209 15.6861L6.285 15.689L13.7207 8.23463C13.9866 7.96801 14.4032 7.94325 14.6971 8.16071L14.7814 8.23322C15.048 8.49913 15.0727 8.91576 14.8553 9.20966L14.7828 9.29388L7.1882 16.907C6.47056 17.7826 6.52044 19.0769 7.33784 19.8943C8.1669 20.7233 9.48655 20.7628 10.3623 20.0127L19.195 11.1822C20.9505 9.42456 20.9505 6.57532 19.1931 4.81796C17.4907 3.11552 14.7635 3.06232 12.997 4.65836L12.8292 4.81796L12.8166 4.83227L3.28033 14.3686C2.98744 14.6615 2.51257 14.6615 2.21967 14.3686C1.95341 14.1024 1.9292 13.6857 2.14705 13.3921L2.21967 13.308L11.7685 3.7573L11.7702 3.75774Z"
    />
  </symbol>
  <symbol id="book" viewBox="0 0 24 24">
    <path
      d="M11.0242 7.57051L10.8009 8.48015L9.73088 8.48029L9.62911 8.48714C9.26304 8.5368 8.98088 8.8506 8.98088 9.23029L8.98773 9.33206C9.03739 9.69814 9.35119 9.98029 9.73088 9.98029L10.4339 9.98015L10.0459 11.5662L9.25 11.5671L9.14823 11.5739C8.78215 11.6236 8.5 11.9374 8.5 12.3171L8.50685 12.4189C8.55651 12.7849 8.8703 13.0671 9.25 13.0671L9.67887 13.0662L9.55583 13.5734L9.5383 13.6739C9.49956 14.0413 9.73733 14.3899 10.1061 14.4801L10.2066 14.4976C10.574 14.5364 10.9227 14.2986 11.0129 13.9298L11.2229 13.0662H12.7619L12.6444 13.5841L12.6284 13.6848C12.595 14.0528 12.8379 14.3979 13.208 14.4827L13.3087 14.4987C13.6766 14.5321 14.0217 14.2892 14.1065 13.9191L14.3009 13.0662L15.2416 13.0671L15.3433 13.0602C15.7094 13.0106 15.9916 12.6968 15.9916 12.3171L15.9847 12.2153C15.935 11.8492 15.6212 11.5671 15.2416 11.5671L14.6449 11.5662L15.0079 9.98015L15.7279 9.98029L15.8297 9.97345C16.1958 9.92378 16.4779 9.60999 16.4779 9.23029L16.4711 9.12852C16.4214 8.76245 16.1076 8.48029 15.7279 8.48029L15.3519 8.48015L15.4818 7.9162L15.4979 7.81547C15.5312 7.44755 15.2883 7.10244 14.9182 7.01765L14.8175 7.0016C14.4496 6.96825 14.1045 7.21112 14.0197 7.58122L13.8129 8.48015H12.3449L12.4812 7.92691L12.4988 7.82643C12.5375 7.45904 12.2997 7.11041 11.9309 7.02019C11.5286 6.92177 11.1226 7.16816 11.0242 7.57051ZM11.9779 9.98015H13.4689L13.1059 11.5662H11.5899L11.9779 9.98015ZM6.5 2C5.11929 2 4 3.11929 4 4.5V19.5C4 20.8807 5.11929 22 6.5 22H19.75C20.1642 22 20.5 21.6642 20.5 21.25C20.5 20.8358 20.1642 20.5 19.75 20.5H6.5C5.94772 20.5 5.5 20.0523 5.5 19.5H19.75C20.1642 19.5 20.5 19.1642 20.5 18.75V4.5C20.5 3.11929 19.3807 2 18 2H6.5ZM19 18H5.5V4.5C5.5 3.94772 5.94772 3.5 6.5 3.5H18C18.5523 3.5 19 3.94772 19 4.5V18Z"
    />
  </symbol>
  <symbol id="robot" viewBox="0 0 24 24">
    <path
      d="M17.7495 13.9994C18.9922 13.9994 19.9995 15.0068 19.9995 16.2494V17.1545C19.9995 18.2482 19.5221 19.2874 18.6922 19.9998C17.1268 21.3437 14.8865 22.0006 11.9965 22.0006C9.10696 22.0006 6.86814 21.344 5.30527 20.0003C4.47665 19.2879 4 18.2495 4 17.1567V16.2494C4 15.0068 5.00736 13.9994 6.25 13.9994H17.7495ZM17.7495 15.4994H6.25C5.83578 15.4994 5.5 15.8352 5.5 16.2494V17.1567C5.5 17.8124 5.78599 18.4354 6.28316 18.8629C7.54125 19.9445 9.43726 20.5006 11.9965 20.5006C14.5564 20.5006 16.4543 19.9442 17.7152 18.8617C18.213 18.4342 18.4995 17.8107 18.4995 17.1545V16.2494C18.4995 15.8352 18.1637 15.4994 17.7495 15.4994ZM11.895 2.00685L11.9968 2C12.3765 2 12.6903 2.28215 12.7399 2.64823L12.7468 2.75L12.746 3.499L16.2465 3.49951C17.4891 3.49951 18.4965 4.50687 18.4965 5.74951V10.2541C18.4965 11.4967 17.4891 12.5041 16.2465 12.5041H7.74645C6.50381 12.5041 5.49645 11.4967 5.49645 10.2541V5.74951C5.49645 4.50687 6.50381 3.49951 7.74645 3.49951L11.246 3.499L11.2468 2.75C11.2468 2.3703 11.5289 2.05651 11.895 2.00685ZM16.2465 4.99951H7.74645C7.33224 4.99951 6.99645 5.33529 6.99645 5.74951V10.2541C6.99645 10.6683 7.33224 11.0041 7.74645 11.0041H16.2465C16.6607 11.0041 16.9965 10.6683 16.9965 10.2541V5.74951C16.9965 5.33529 16.6607 4.99951 16.2465 4.99951ZM9.74574 6.49951C10.4357 6.49951 10.995 7.05883 10.995 7.74879C10.995 8.43876 10.4357 8.99808 9.74574 8.99808C9.05578 8.99808 8.49645 8.43876 8.49645 7.74879C8.49645 7.05883 9.05578 6.49951 9.74574 6.49951ZM14.2385 6.49951C14.9285 6.49951 15.4878 7.05883 15.4878 7.74879C15.4878 8.43876 14.9285 8.99808 14.2385 8.99808C13.5485 8.99808 12.9892 8.43876 12.9892 7.74879C12.9892 7.05883 13.5485 6.49951 14.2385 6.49951Z"
    />
  </symbol>
  <symbol id="folder" viewBox="1.67 2.5 16.67 15">
    <path
      d="M2.91699 5.20833V6.66667H6.77423C6.93998 6.66667 7.09896 6.60082 7.21617 6.48361L8.49141 5.20833L7.21617 3.93306C7.09896 3.81585 6.93998 3.75 6.77423 3.75H4.37533C3.56991 3.75 2.91699 4.40292 2.91699 5.20833ZM1.66699 5.20833C1.66699 3.71256 2.87955 2.5 4.37533 2.5H6.77423C7.27151 2.5 7.74842 2.69754 8.10005 3.04917L9.63424 4.58333H15.6253C17.1211 4.58333 18.3337 5.79589 18.3337 7.29167V14.7917C18.3337 16.2874 17.1211 17.5 15.6253 17.5H4.37533C2.87955 17.5 1.66699 16.2874 1.66699 14.7917V5.20833ZM2.91699 7.91667V14.7917C2.91699 15.5971 3.56991 16.25 4.37533 16.25H15.6253C16.4307 16.25 17.0837 15.5971 17.0837 14.7917V7.29167C17.0837 6.48625 16.4307 5.83333 15.6253 5.83333H9.63424L8.10005 7.36749C7.74842 7.71912 7.27151 7.91667 6.77423 7.91667H2.91699Z"
    />
  </symbol>
  <symbol id="message" viewBox="0 0 20 20">
    <path
      d="M3.25 15.5001C1.45507 15.5001 0 14.045 0 12.2501V3.75012C0 1.95519 1.45507 0.500122 3.25 0.500122H16.75C18.5449 0.500122 20 1.95519 20 3.75012V12.2501C20 14.045 18.5449 15.5001 16.75 15.5001H11.0125L5.99868 19.2508C5.44585 19.6643 4.6625 19.5513 4.24901 18.9985C4.08736 18.7823 4 18.5197 4 18.25L3.99921 15.5001H3.25ZM10.5135 14.0001H16.75C17.7165 14.0001 18.5 13.2166 18.5 12.2501V3.75012C18.5 2.78362 17.7165 2.00012 16.75 2.00012H3.25C2.2835 2.00012 1.5 2.78362 1.5 3.75012V12.2501C1.5 13.2166 2.2835 14.0001 3.25 14.0001H5.49879L5.499 14.7499L5.49986 17.7507L10.5135 14.0001Z"
    />
  </symbol>
  <symbol id="chat-plus" viewBox="0 0 24 24">
    <path
      d="M12.75 7.75C12.75 7.33579 12.4142 7 12 7C11.5858 7 11.25 7.33579 11.25 7.75V11.25H7.75C7.33579 11.25 7 11.5858 7 12C7 12.4142 7.33579 12.75 7.75 12.75H11.25V16.25C11.25 16.6642 11.5858 17 12 17C12.4142 17 12.75 16.6642 12.75 16.25V12.75H16.25C16.6642 12.75 17 12.4142 17 12C17 11.5858 16.6642 11.25 16.25 11.25H12.75V7.75ZM22 12C22 6.47715 17.5228 2 12 2C6.47715 2 2 6.47715 2 12C2 13.6203 2.38637 15.186 3.11461 16.5922L2.04695 20.4151C1.98549 20.6349 1.98546 20.8676 2.04691 21.0876C2.23258 21.7525 2.92212 22.141 3.58704 21.9553L7.41286 20.888C8.81782 21.6146 10.3817 22 12 22C17.5228 22 22 17.5228 22 12ZM3.5 12C3.5 7.30558 7.30558 3.5 12 3.5C16.6944 3.5 20.5 7.30558 20.5 12C20.5 16.6944 16.6944 20.5 12 20.5C10.5322 20.5 9.12006 20.1281 7.86709 19.4295L7.59755 19.2792L3.61096 20.3914L4.72368 16.4072L4.57303 16.1375C3.87277 14.8834 3.5 13.4696 3.5 12Z"
    />
  </symbol>
  <symbol id="arrow-left" viewBox="0 0 24 24">
    <path
      d="M10.6328 19.186C10.916 19.4558 11.3644 19.4448 11.6341 19.1617C11.9039 18.8785 11.893 18.4301 11.6098 18.1604L5.70672 12.5376H19.6197C20.0109 12.5376 20.3279 12.2205 20.3279 11.8294C20.3279 11.4383 20.0109 11.1212 19.6197 11.1212H5.70663L11.6098 5.49835C11.893 5.22858 11.9038 4.78031 11.6341 4.49709C11.3644 4.21389 10.916 4.20298 10.6328 4.47275L3.62736 11.1456C3.46784 11.2976 3.37346 11.4913 3.34421 11.6928C3.33558 11.737 3.33105 11.7827 3.33105 11.8294C3.33105 11.8762 3.3356 11.9219 3.34426 11.9662C3.37357 12.1676 3.46794 12.3613 3.62736 12.5131L10.6328 19.186Z"
    />
  </symbol>
  <symbol id="settings" viewBox="0 0 24 24">
    <path
      d="M12.3726 2C13.1066 2.00846 13.8377 2.09326 14.5541 2.25304C14.8668 2.32279 15.1007 2.58351 15.1362 2.90196L15.3064 4.42881C15.3835 5.12986 15.9754 5.66084 16.681 5.66158C16.8707 5.66188 17.0583 5.62238 17.2336 5.54483L18.6342 4.92956C18.9255 4.80159 19.2659 4.87136 19.4833 5.10362C20.4955 6.18464 21.2493 7.48115 21.6881 8.89558C21.7827 9.20058 21.6738 9.53203 21.4168 9.7215L20.1753 10.6366C19.8211 10.8968 19.612 11.31 19.612 11.7495C19.612 12.1889 19.8211 12.6021 20.1761 12.8629L21.4186 13.7783C21.6757 13.9677 21.7847 14.2992 21.6901 14.6043C21.2515 16.0185 20.4981 17.3149 19.4865 18.3961C19.2693 18.6283 18.9292 18.6983 18.6379 18.5706L17.2316 17.9545C16.8292 17.7784 16.3672 17.8042 15.9869 18.024C15.6067 18.2437 15.3537 18.6312 15.3054 19.0677L15.1363 20.5944C15.1014 20.9092 14.8726 21.1682 14.5644 21.2415C13.116 21.5861 11.6069 21.5861 10.1584 21.2415C9.85026 21.1682 9.6214 20.9092 9.58653 20.5944L9.41771 19.07C9.36812 18.6343 9.11469 18.248 8.73477 18.029C8.35486 17.81 7.89355 17.7843 7.49255 17.9594L6.08592 18.5756C5.79457 18.7033 5.45438 18.6333 5.23713 18.4009C4.22497 17.3185 3.47154 16.0205 3.03355 14.6048C2.93921 14.2999 3.04821 13.9686 3.3052 13.7793L4.54853 12.8633C4.90267 12.6031 5.11182 12.1899 5.11182 11.7505C5.11182 11.311 4.90267 10.8978 4.54806 10.6373L3.30551 9.72285C3.04815 9.53345 2.93905 9.20178 3.03372 8.89658C3.47247 7.48215 4.22629 6.18564 5.23848 5.10462C5.45594 4.87236 5.79629 4.80259 6.08759 4.93056L7.48797 5.54572C7.89091 5.72256 8.35415 5.69585 8.73612 5.47269C9.11644 5.25209 9.36964 4.86422 9.41852 4.42764L9.58859 2.90196C9.62411 2.58335 9.85821 2.32254 10.1712 2.25294C10.8885 2.09342 11.6204 2.00865 12.3726 2ZM12.3728 3.4999C11.9187 3.50524 11.466 3.54443 11.0182 3.61702L10.9093 4.59418C10.8075 5.50368 10.2804 6.31102 9.49077 6.76903C8.69632 7.23317 7.72771 7.28903 6.88493 6.91917L5.98664 6.52456C5.41471 7.21873 4.95949 8.00135 4.63887 8.84168L5.43667 9.42879C6.17548 9.9716 6.61182 10.8337 6.61182 11.7505C6.61182 12.6672 6.17548 13.5293 5.43745 14.0715L4.6384 14.6602C4.95874 15.502 5.41403 16.2861 5.98635 16.9816L6.89148 16.5851C7.72958 16.2192 8.69159 16.2727 9.48388 16.7294C10.2762 17.1861 10.8047 17.9917 10.9084 18.9026L11.0174 19.8865C11.907 20.0378 12.8159 20.0378 13.7055 19.8865L13.8145 18.9027C13.9153 17.9921 14.4432 17.1837 15.2364 16.7253C16.0296 16.2668 16.9936 16.213 17.8332 16.5805L18.7376 16.9767C19.3094 16.2823 19.7645 15.4995 20.0851 14.659L19.2871 14.0711C18.5483 13.5283 18.112 12.6662 18.112 11.7495C18.112 10.8327 18.5483 9.9706 19.2862 9.42847L20.0831 8.84109C19.7625 8.00061 19.3072 7.21784 18.7352 6.52356L17.8387 6.91737C17.4734 7.07901 17.0782 7.1622 16.6791 7.16158C15.2094 7.16004 13.9759 6.05355 13.8155 4.59383L13.7066 3.6167C13.2611 3.5442 12.813 3.50512 12.3728 3.4999ZM12.3601 7.99995C14.4312 7.99995 16.1101 9.67888 16.1101 11.75C16.1101 13.821 14.4312 15.5 12.3601 15.5C10.289 15.5 8.61005 13.821 8.61005 11.75C8.61005 9.67888 10.289 7.99995 12.3601 7.99995ZM12.3601 9.49995C11.1175 9.49995 10.1101 10.5073 10.1101 11.75C10.1101 12.9926 11.1175 14 12.3601 14C13.6027 14 14.6101 12.9926 14.6101 11.75C14.6101 10.5073 13.6027 9.49995 12.3601 9.49995Z"
    />
  </symbol>
  <symbol id="delete" viewBox="0 0 21 20">
    <path
      d="M8.83366 4.16667L12.167 4.16667C12.167 3.24619 11.4208 2.5 10.5003 2.5C9.57983 2.5 8.83366 3.24619 8.83366 4.16667ZM7.58366 4.16667C7.58366 2.55583 8.88949 1.25 10.5003 1.25C12.1112 1.25 13.417 2.55583 13.417 4.16667H18.2087C18.5538 4.16667 18.8337 4.44649 18.8337 4.79167C18.8337 5.13684 18.5538 5.41667 18.2087 5.41667H17.1094L16.1327 15.5093C15.9777 17.1112 14.6316 18.3333 13.0222 18.3333H7.9784C6.36911 18.3333 5.02295 17.1112 4.86793 15.5093L3.89123 5.41667H2.79199C2.44682 5.41667 2.16699 5.13684 2.16699 4.79167C2.16699 4.44649 2.44682 4.16667 2.79199 4.16667H7.58366ZM9.25033 8.125C9.25033 7.77983 8.97049 7.5 8.62533 7.5C8.28015 7.5 8.00033 7.77983 8.00033 8.125L8.00033 14.375C8.00033 14.7202 8.28015 15 8.62533 15C8.97049 15 9.25033 14.7202 9.25033 14.375L9.25033 8.125ZM12.3753 7.5C12.7205 7.5 13.0003 7.77983 13.0003 8.125L13.0003 14.375C13.0003 14.7202 12.7205 15 12.3753 15C12.0302 15 11.7503 14.7202 11.7503 14.375L11.7503 8.125C11.7503 7.77983 12.0302 7.5 12.3753 7.5ZM6.11213 15.3889C6.20513 16.35 7.01283 17.0833 7.9784 17.0833H13.0222C13.9878 17.0833 14.7955 16.35 14.8885 15.3889L15.8536 5.41667L5.14706 5.41667L6.11213 15.3889Z"/>
  </symbol>
  <symbol id="pencil" viewBox="0 0 24 24">
    <path
      d="M20.9519 3.0481C19.5543 1.65058 17.2885 1.65064 15.8911 3.04825L3.94103 14.9997C3.5347 15.4061 3.2491 15.9172 3.116 16.4762L2.02041 21.0777C1.96009 21.3311 2.03552 21.5976 2.21968 21.7817C2.40385 21.9659 2.67037 22.0413 2.92373 21.981L7.52498 20.8855C8.08418 20.7523 8.59546 20.4666 9.00191 20.0601L20.952 8.10861C22.3493 6.71112 22.3493 4.4455 20.9519 3.0481ZM16.9518 4.10884C17.7634 3.29709 19.0795 3.29705 19.8912 4.10876C20.7028 4.9204 20.7029 6.23632 19.8913 7.04801L19 7.93946L16.0606 5.00012L16.9518 4.10884ZM15 6.06084L17.9394 9.00018L7.94119 18.9995C7.73104 19.2097 7.46668 19.3574 7.17755 19.4263L3.76191 20.2395L4.57521 16.8237C4.64402 16.5346 4.79168 16.2704 5.00175 16.0603L15 6.06084Z"
    />
  </symbol>
  <symbol id="copy" viewBox="0 0 24 24">
    <path
      d="M5.5028 4.62704L5.5 6.75V17.2542C5.5 19.0491 6.95507 20.5042 8.75 20.5042L17.3663 20.5045C17.0573 21.3782 16.224 22.0042 15.2444 22.0042H8.75C6.12665 22.0042 4 19.8776 4 17.2542V6.75C4 5.76929 4.62745 4.93512 5.5028 4.62704ZM13.1284 2C13.7254 2 14.2979 2.23723 14.7199 2.65947L19.3383 7.28054C19.7599 7.70246 19.9968 8.27455 19.9968 8.87107V17.2542C19.9968 18.4969 18.9895 19.5042 17.7468 19.5042H8.75241C7.50977 19.5042 6.50241 18.4969 6.50241 17.2542V4.25C6.50241 3.00736 7.50977 2 8.75241 2H13.1284ZM12.9994 3.5H8.75241C8.33819 3.5 8.00241 3.83579 8.00241 4.25V17.2542C8.00241 17.6684 8.33819 18.0042 8.75241 18.0042H17.7468C18.161 18.0042 18.4968 17.6684 18.4968 17.2542L18.4964 9.003L15.25 9.00389C14.0591 9.00389 13.0844 8.07873 13.0052 6.90794L13 6.75389L12.9994 3.5ZM14.4994 4.561L14.5 6.75389C14.5 7.13359 14.7822 7.44738 15.1482 7.49704L15.25 7.50389L17.4404 7.503L14.4994 4.561Z"
    />
  </symbol>
</svg>
