<svg xmlns="http://www.w3.org/2000/svg">
  <symbol id="chat" viewBox="0 0 24 24">
    <path
      d="M12 2C17.5228 2 22 6.47715 22 12C22 17.5228 17.5228 22 12 22C10.3817 22 8.81782 21.6146 7.41286 20.888L3.58704 21.9553C2.92212 22.141 2.23258 21.7525 2.04691 21.0876C1.98546 20.8676 1.98549 20.6349 2.04695 20.4151L3.11461 16.5922C2.38637 15.186 2 13.6203 2 12C2 6.47715 6.47715 2 12 2ZM12 3.5C7.30558 3.5 3.5 7.30558 3.5 12C3.5 13.4696 3.87277 14.8834 4.57303 16.1375L4.72368 16.4072L3.61096 20.3914L7.59755 19.2792L7.86709 19.4295C9.12006 20.1281 10.5322 20.5 12 20.5C16.6944 20.5 20.5 16.6944 20.5 12C20.5 7.30558 16.6944 3.5 12 3.5Z"
    />
  </symbol>
  <symbol id="download" viewBox="0 0 24 24">
    <path
      d="M18.2033 19.8516C18.5944 19.8515 18.9117 20.1684 18.9117 20.5596C18.9117 20.9507 18.5948 21.2679 18.2037 21.268L5.92814 21.2715C5.537 21.2716 5.21973 20.9546 5.21973 20.5635C5.21973 20.1724 5.5366 19.8552 5.92772 19.8551L18.2033 19.8516ZM11.9696 2.39368L12.0657 2.38721C12.4242 2.38721 12.7205 2.65363 12.7675 2.99931L12.7739 3.09541L12.773 16.0178L16.2873 12.5047C16.5388 12.2534 16.9323 12.2305 17.2095 12.4363L17.2889 12.5048C17.5403 12.7563 17.5632 13.1498 17.3574 13.427L17.2888 13.5064L12.5697 18.2246C12.3184 18.4758 11.9252 18.4988 11.648 18.2933L11.5685 18.2249L6.8439 13.5067C6.56715 13.2303 6.56683 12.7819 6.84322 12.5051C7.09447 12.2536 7.4879 12.2304 7.76529 12.436L7.84477 12.5045L11.3565 16.0112L11.3575 3.09541C11.3575 2.73687 11.624 2.44057 11.9696 2.39368Z"
    />
  </symbol>
  <symbol id="eye-slash" viewBox="0 0 330 330">
    <path d="M325.607,304.394l-63.479-63.479c38.57-29.035,63.522-64.92,65.247-67.437c3.501-5.11,3.501-11.846,0-16.956
  	c-2.925-4.269-72.659-104.544-162.371-104.544c-25.872,0-50.075,8.345-71.499,20.313L25.607,4.394
  	c-5.857-5.858-15.355-5.858-21.213,0c-5.858,5.858-5.858,15.355,0,21.213l63.478,63.478C29.299,118.12,4.35,154.006,2.625,156.523
  	c-3.5,5.109-3.5,11.845,0,16.955c2.925,4.268,72.65,104.546,162.378,104.546c25.868,0,50.069-8.345,71.493-20.314l67.897,67.898
  	C307.323,328.536,311.161,330,315,330c3.839,0,7.678-1.464,10.606-4.394C331.465,319.749,331.465,310.252,325.607,304.394z
  	 M165.003,81.977c60.26,0,113.408,60.338,131.257,83.022c-9.673,12.294-29.705,35.629-55.609,54.439L115.673,94.461
  	C131.079,86.902,147.736,81.977,165.003,81.977z M165.003,248.023c-60.285,0-113.439-60.364-131.273-83.037
  	c9.651-12.303,29.652-35.658,55.574-54.47l124.99,124.99C198.884,243.084,182.236,248.023,165.003,248.023z"
    />
  </symbol>
  <symbol id="eye" viewBox="0 0 24 24">
    <path
      d="M15 12c0 1.654-1.346 3-3 3s-3-1.346-3-3 1.346-3 3-3 3 1.346 3 3zm9-.449s-4.252 8.449-11.985 8.449c-7.18 0-12.015-8.449-12.015-8.449s4.446-7.551 12.015-7.551c7.694 0 11.985 7.551 11.985 7.551zm-7 .449c0-2.757-2.243-5-5-5s-5 2.243-5 5 2.243 5 5 5 5-2.243 5-5z"
    />
  </symbol>
  <symbol id="attachment" viewBox="0 0 24 24">
    <path
      d="M11.7702 3.75774C14.1116 1.41416 17.9106 1.41416 20.2538 3.7573C22.5368 6.04037 22.5954 9.70558 20.4294 12.0595L20.2412 12.2569L11.4412 21.0551L11.4046 21.0854C9.94346 22.4021 7.68946 22.3574 6.28209 20.95C4.96307 19.631 4.84095 17.5683 5.91574 16.1116C5.93908 16.0662 5.96733 16.0225 6.00054 15.9814L6.0541 15.9217L6.141 15.834L6.28209 15.6861L6.285 15.689L13.7207 8.23463C13.9866 7.96801 14.4032 7.94325 14.6971 8.16071L14.7814 8.23322C15.048 8.49913 15.0727 8.91576 14.8553 9.20966L14.7828 9.29388L7.1882 16.907C6.47056 17.7826 6.52044 19.0769 7.33784 19.8943C8.1669 20.7233 9.48655 20.7628 10.3623 20.0127L19.195 11.1822C20.9505 9.42456 20.9505 6.57532 19.1931 4.81796C17.4907 3.11552 14.7635 3.06232 12.997 4.65836L12.8292 4.81796L12.8166 4.83227L3.28033 14.3686C2.98744 14.6615 2.51257 14.6615 2.21967 14.3686C1.95341 14.1024 1.9292 13.6857 2.14705 13.3921L2.21967 13.308L11.7685 3.7573L11.7702 3.75774Z"
    />
  </symbol>
  <symbol id="book" viewBox="0 0 24 24">
    <path
      d="M11.0242 7.57051L10.8009 8.48015L9.73088 8.48029L9.62911 8.48714C9.26304 8.5368 8.98088 8.8506 8.98088 9.23029L8.98773 9.33206C9.03739 9.69814 9.35119 9.98029 9.73088 9.98029L10.4339 9.98015L10.0459 11.5662L9.25 11.5671L9.14823 11.5739C8.78215 11.6236 8.5 11.9374 8.5 12.3171L8.50685 12.4189C8.55651 12.7849 8.8703 13.0671 9.25 13.0671L9.67887 13.0662L9.55583 13.5734L9.5383 13.6739C9.49956 14.0413 9.73733 14.3899 10.1061 14.4801L10.2066 14.4976C10.574 14.5364 10.9227 14.2986 11.0129 13.9298L11.2229 13.0662H12.7619L12.6444 13.5841L12.6284 13.6848C12.595 14.0528 12.8379 14.3979 13.208 14.4827L13.3087 14.4987C13.6766 14.5321 14.0217 14.2892 14.1065 13.9191L14.3009 13.0662L15.2416 13.0671L15.3433 13.0602C15.7094 13.0106 15.9916 12.6968 15.9916 12.3171L15.9847 12.2153C15.935 11.8492 15.6212 11.5671 15.2416 11.5671L14.6449 11.5662L15.0079 9.98015L15.7279 9.98029L15.8297 9.97345C16.1958 9.92378 16.4779 9.60999 16.4779 9.23029L16.4711 9.12852C16.4214 8.76245 16.1076 8.48029 15.7279 8.48029L15.3519 8.48015L15.4818 7.9162L15.4979 7.81547C15.5312 7.44755 15.2883 7.10244 14.9182 7.01765L14.8175 7.0016C14.4496 6.96825 14.1045 7.21112 14.0197 7.58122L13.8129 8.48015H12.3449L12.4812 7.92691L12.4988 7.82643C12.5375 7.45904 12.2997 7.11041 11.9309 7.02019C11.5286 6.92177 11.1226 7.16816 11.0242 7.57051ZM11.9779 9.98015H13.4689L13.1059 11.5662H11.5899L11.9779 9.98015ZM6.5 2C5.11929 2 4 3.11929 4 4.5V19.5C4 20.8807 5.11929 22 6.5 22H19.75C20.1642 22 20.5 21.6642 20.5 21.25C20.5 20.8358 20.1642 20.5 19.75 20.5H6.5C5.94772 20.5 5.5 20.0523 5.5 19.5H19.75C20.1642 19.5 20.5 19.1642 20.5 18.75V4.5C20.5 3.11929 19.3807 2 18 2H6.5ZM19 18H5.5V4.5C5.5 3.94772 5.94772 3.5 6.5 3.5H18C18.5523 3.5 19 3.94772 19 4.5V18Z"
    />
  </symbol>
  <symbol id="robot" viewBox="0 0 24 24">
    <path
      d="M17.7495 13.9994C18.9922 13.9994 19.9995 15.0068 19.9995 16.2494V17.1545C19.9995 18.2482 19.5221 19.2874 18.6922 19.9998C17.1268 21.3437 14.8865 22.0006 11.9965 22.0006C9.10696 22.0006 6.86814 21.344 5.30527 20.0003C4.47665 19.2879 4 18.2495 4 17.1567V16.2494C4 15.0068 5.00736 13.9994 6.25 13.9994H17.7495ZM17.7495 15.4994H6.25C5.83578 15.4994 5.5 15.8352 5.5 16.2494V17.1567C5.5 17.8124 5.78599 18.4354 6.28316 18.8629C7.54125 19.9445 9.43726 20.5006 11.9965 20.5006C14.5564 20.5006 16.4543 19.9442 17.7152 18.8617C18.213 18.4342 18.4995 17.8107 18.4995 17.1545V16.2494C18.4995 15.8352 18.1637 15.4994 17.7495 15.4994ZM11.895 2.00685L11.9968 2C12.3765 2 12.6903 2.28215 12.7399 2.64823L12.7468 2.75L12.746 3.499L16.2465 3.49951C17.4891 3.49951 18.4965 4.50687 18.4965 5.74951V10.2541C18.4965 11.4967 17.4891 12.5041 16.2465 12.5041H7.74645C6.50381 12.5041 5.49645 11.4967 5.49645 10.2541V5.74951C5.49645 4.50687 6.50381 3.49951 7.74645 3.49951L11.246 3.499L11.2468 2.75C11.2468 2.3703 11.5289 2.05651 11.895 2.00685ZM16.2465 4.99951H7.74645C7.33224 4.99951 6.99645 5.33529 6.99645 5.74951V10.2541C6.99645 10.6683 7.33224 11.0041 7.74645 11.0041H16.2465C16.6607 11.0041 16.9965 10.6683 16.9965 10.2541V5.74951C16.9965 5.33529 16.6607 4.99951 16.2465 4.99951ZM9.74574 6.49951C10.4357 6.49951 10.995 7.05883 10.995 7.74879C10.995 8.43876 10.4357 8.99808 9.74574 8.99808C9.05578 8.99808 8.49645 8.43876 8.49645 7.74879C8.49645 7.05883 9.05578 6.49951 9.74574 6.49951ZM14.2385 6.49951C14.9285 6.49951 15.4878 7.05883 15.4878 7.74879C15.4878 8.43876 14.9285 8.99808 14.2385 8.99808C13.5485 8.99808 12.9892 8.43876 12.9892 7.74879C12.9892 7.05883 13.5485 6.49951 14.2385 6.49951Z"
    />
  </symbol>
  <symbol id="folder" viewBox="1.67 2.5 16.67 15">
    <path
      d="M2.91699 5.20833V6.66667H6.77423C6.93998 6.66667 7.09896 6.60082 7.21617 6.48361L8.49141 5.20833L7.21617 3.93306C7.09896 3.81585 6.93998 3.75 6.77423 3.75H4.37533C3.56991 3.75 2.91699 4.40292 2.91699 5.20833ZM1.66699 5.20833C1.66699 3.71256 2.87955 2.5 4.37533 2.5H6.77423C7.27151 2.5 7.74842 2.69754 8.10005 3.04917L9.63424 4.58333H15.6253C17.1211 4.58333 18.3337 5.79589 18.3337 7.29167V14.7917C18.3337 16.2874 17.1211 17.5 15.6253 17.5H4.37533C2.87955 17.5 1.66699 16.2874 1.66699 14.7917V5.20833ZM2.91699 7.91667V14.7917C2.91699 15.5971 3.56991 16.25 4.37533 16.25H15.6253C16.4307 16.25 17.0837 15.5971 17.0837 14.7917V7.29167C17.0837 6.48625 16.4307 5.83333 15.6253 5.83333H9.63424L8.10005 7.36749C7.74842 7.71912 7.27151 7.91667 6.77423 7.91667H2.91699Z"
    />
  </symbol>
  <symbol id="message" viewBox="0 0 20 20">
    <path
      d="M3.25 15.5001C1.45507 15.5001 0 14.045 0 12.2501V3.75012C0 1.95519 1.45507 0.500122 3.25 0.500122H16.75C18.5449 0.500122 20 1.95519 20 3.75012V12.2501C20 14.045 18.5449 15.5001 16.75 15.5001H11.0125L5.99868 19.2508C5.44585 19.6643 4.6625 19.5513 4.24901 18.9985C4.08736 18.7823 4 18.5197 4 18.25L3.99921 15.5001H3.25ZM10.5135 14.0001H16.75C17.7165 14.0001 18.5 13.2166 18.5 12.2501V3.75012C18.5 2.78362 17.7165 2.00012 16.75 2.00012H3.25C2.2835 2.00012 1.5 2.78362 1.5 3.75012V12.2501C1.5 13.2166 2.2835 14.0001 3.25 14.0001H5.49879L5.499 14.7499L5.49986 17.7507L10.5135 14.0001Z"
    />
  </symbol>
  <symbol id="chat-plus" viewBox="0 0 24 24">
    <path
      d="M12.75 7.75C12.75 7.33579 12.4142 7 12 7C11.5858 7 11.25 7.33579 11.25 7.75V11.25H7.75C7.33579 11.25 7 11.5858 7 12C7 12.4142 7.33579 12.75 7.75 12.75H11.25V16.25C11.25 16.6642 11.5858 17 12 17C12.4142 17 12.75 16.6642 12.75 16.25V12.75H16.25C16.6642 12.75 17 12.4142 17 12C17 11.5858 16.6642 11.25 16.25 11.25H12.75V7.75ZM22 12C22 6.47715 17.5228 2 12 2C6.47715 2 2 6.47715 2 12C2 13.6203 2.38637 15.186 3.11461 16.5922L2.04695 20.4151C1.98549 20.6349 1.98546 20.8676 2.04691 21.0876C2.23258 21.7525 2.92212 22.141 3.58704 21.9553L7.41286 20.888C8.81782 21.6146 10.3817 22 12 22C17.5228 22 22 17.5228 22 12ZM3.5 12C3.5 7.30558 7.30558 3.5 12 3.5C16.6944 3.5 20.5 7.30558 20.5 12C20.5 16.6944 16.6944 20.5 12 20.5C10.5322 20.5 9.12006 20.1281 7.86709 19.4295L7.59755 19.2792L3.61096 20.3914L4.72368 16.4072L4.57303 16.1375C3.87277 14.8834 3.5 13.4696 3.5 12Z"
    />
  </symbol>
  <symbol id="arrow-left" viewBox="0 0 24 24">
    <path
      d="M10.6328 19.186C10.916 19.4558 11.3644 19.4448 11.6341 19.1617C11.9039 18.8785 11.893 18.4301 11.6098 18.1604L5.70672 12.5376H19.6197C20.0109 12.5376 20.3279 12.2205 20.3279 11.8294C20.3279 11.4383 20.0109 11.1212 19.6197 11.1212H5.70663L11.6098 5.49835C11.893 5.22858 11.9038 4.78031 11.6341 4.49709C11.3644 4.21389 10.916 4.20298 10.6328 4.47275L3.62736 11.1456C3.46784 11.2976 3.37346 11.4913 3.34421 11.6928C3.33558 11.737 3.33105 11.7827 3.33105 11.8294C3.33105 11.8762 3.3356 11.9219 3.34426 11.9662C3.37357 12.1676 3.46794 12.3613 3.62736 12.5131L10.6328 19.186Z"
    />
  </symbol>
</svg>
