<svg width="17" height="20" viewBox="0 0 17 20" fill="none" xmlns="http://www.w3.org/2000/svg">
<path d="M14.2495 11.9992C15.4922 11.9992 16.4995 13.0066 16.4995 14.2492V15.1543C16.4995 16.248 16.0221 17.2872 15.1922 17.9996C13.6268 19.3435 11.3865 20.0004 8.49649 20.0004C5.60696 20.0004 3.36814 19.3438 1.80527 18.0001C0.97665 17.2877 0.5 16.2493 0.5 15.1565V14.2492C0.5 13.0066 1.50736 11.9992 2.75 11.9992H14.2495ZM14.2495 13.4992H2.75C2.33578 13.4992 2 13.835 2 14.2492V15.1565C2 15.8122 2.28599 16.4352 2.78316 16.8627C4.04125 17.9443 5.93726 18.5004 8.49649 18.5004C11.0564 18.5004 12.9543 17.944 14.2152 16.8615C14.713 16.434 14.9995 15.8105 14.9995 15.1543V14.2492C14.9995 13.835 14.6637 13.4992 14.2495 13.4992ZM8.39499 0.00660586L8.49679 -0.000244141C8.87649 -0.000244141 9.19029 0.281906 9.23989 0.647986L9.24679 0.749756L9.24599 1.49876L12.7465 1.49927C13.9891 1.49927 14.9965 2.50663 14.9965 3.74927V8.25386C14.9965 9.49646 13.9891 10.5039 12.7465 10.5039H4.24645C3.00381 10.5039 1.99645 9.49646 1.99645 8.25386V3.74927C1.99645 2.50663 3.00381 1.49927 4.24645 1.49927L7.74599 1.49876L7.74679 0.749756C7.74679 0.370056 8.02889 0.0562659 8.39499 0.00660586ZM12.7465 2.99927H4.24645C3.83224 2.99927 3.49645 3.33505 3.49645 3.74927V8.25386C3.49645 8.66806 3.83224 9.00386 4.24645 9.00386H12.7465C13.1607 9.00386 13.4965 8.66806 13.4965 8.25386V3.74927C13.4965 3.33505 13.1607 2.99927 12.7465 2.99927ZM6.24574 4.49927C6.93569 4.49927 7.49499 5.05859 7.49499 5.74855C7.49499 6.43852 6.93569 6.99784 6.24574 6.99784C5.55578 6.99784 4.99645 6.43852 4.99645 5.74855C4.99645 5.05859 5.55578 4.49927 6.24574 4.49927ZM10.7385 4.49927C11.4285 4.49927 11.9878 5.05859 11.9878 5.74855C11.9878 6.43852 11.4285 6.99784 10.7385 6.99784C10.0485 6.99784 9.48919 6.43852 9.48919 5.74855C9.48919 5.05859 10.0485 4.49927 10.7385 4.49927Z" fill="white"/>
</svg>
