<svg width="117" height="36" viewBox="0 0 117 36" fill="none" xmlns="http://www.w3.org/2000/svg">
<path d="M28.2433 22.5181H33.386V25H25.1129V9.39282H28.2433V22.5181ZM36.9633 11.1369C36.4117 11.1369 35.9496 10.9655 35.577 10.6226C35.2192 10.2649 35.0403 9.82511 35.0403 9.30338C35.0403 8.78165 35.2192 8.34936 35.577 8.00651C35.9496 7.64875 36.4117 7.46988 36.9633 7.46988C37.5148 7.46988 37.9695 7.64875 38.3272 8.00651C38.6999 8.34936 38.8862 8.78165 38.8862 9.30338C38.8862 9.82511 38.6999 10.2649 38.3272 10.6226C37.9695 10.9655 37.5148 11.1369 36.9633 11.1369ZM38.5061 12.6126V25H35.3757V12.6126H38.5061ZM44.7293 14.4238C45.1318 13.8275 45.6833 13.3431 46.3839 12.9704C47.0994 12.5977 47.9119 12.4114 48.8212 12.4114C49.8795 12.4114 50.8335 12.6723 51.6832 13.194C52.5478 13.7157 53.226 14.4611 53.718 15.43C54.2248 16.384 54.4782 17.4945 54.4782 18.7616C54.4782 20.0287 54.2248 21.1541 53.718 22.1379C53.226 23.1069 52.5478 23.8596 51.6832 24.3963C50.8335 24.9329 49.8795 25.2012 48.8212 25.2012C47.8969 25.2012 47.0845 25.0224 46.3839 24.6646C45.6982 24.2919 45.1467 23.8149 44.7293 23.2336V25H41.5989V8.45371H44.7293V14.4238ZM51.2807 18.7616C51.2807 18.0163 51.1242 17.3753 50.8112 16.8387C50.513 16.2871 50.1106 15.8697 49.6037 15.5865C49.1118 15.3033 48.5752 15.1617 47.9938 15.1617C47.4274 15.1617 46.8908 15.3107 46.3839 15.6089C45.892 15.8921 45.4895 16.3095 45.1765 16.861C44.8784 17.4126 44.7293 18.061 44.7293 18.8063C44.7293 19.5516 44.8784 20.2001 45.1765 20.7516C45.4895 21.3032 45.892 21.728 46.3839 22.0261C46.8908 22.3094 47.4274 22.451 47.9938 22.451C48.5752 22.451 49.1118 22.3019 49.6037 22.0038C50.1106 21.7056 50.513 21.2808 50.8112 20.7293C51.1242 20.1777 51.2807 19.5218 51.2807 18.7616ZM68.2683 18.538C68.2683 18.9852 68.2385 19.3877 68.1788 19.7454H59.1231C59.1976 20.6398 59.5107 21.3404 60.0622 21.8473C60.6138 22.3541 61.292 22.6075 62.097 22.6075C63.2597 22.6075 64.087 22.1081 64.5789 21.1094H67.9552C67.5975 22.3019 66.9118 23.2857 65.8981 24.0609C64.8845 24.8211 63.6398 25.2012 62.164 25.2012C60.9715 25.2012 59.8982 24.9404 58.9442 24.4186C58.0051 23.882 57.2672 23.1292 56.7306 22.1603C56.2089 21.1914 55.948 20.0734 55.948 18.8063C55.948 17.5244 56.2089 16.3989 56.7306 15.43C57.2523 14.4611 57.9828 13.7157 58.9219 13.194C59.861 12.6723 60.9417 12.4114 62.164 12.4114C63.3417 12.4114 64.3926 12.6648 65.3168 13.1716C66.2559 13.6785 66.9789 14.4014 67.4857 15.3405C68.0074 16.2648 68.2683 17.3306 68.2683 18.538ZM65.0261 17.6436C65.0112 16.8387 64.7205 16.1977 64.1541 15.7207C63.5876 15.2287 62.8945 14.9828 62.0746 14.9828C61.2995 14.9828 60.6436 15.2213 60.1069 15.6983C59.5852 16.1604 59.2647 16.8088 59.1455 17.6436H65.0261ZM73.6836 14.5356C74.086 13.8797 74.6078 13.3654 75.2488 12.9928C75.9046 12.6201 76.65 12.4338 77.4847 12.4338V15.7207H76.6574C75.6736 15.7207 74.9283 15.9517 74.4214 16.4138C73.9295 16.8759 73.6836 17.6809 73.6836 18.8287V25H70.5532V12.6126H73.6836V14.5356ZM83.2379 15.184V21.1765C83.2379 21.5938 83.3347 21.8994 83.5285 22.0932C83.7372 22.2721 84.0801 22.3615 84.5571 22.3615H86.0105V25H84.0428C81.4043 25 80.0851 23.718 80.0851 21.1541V15.184H78.6094V12.6126H80.0851V9.54934H83.2379V12.6126H86.0105V15.184H83.2379ZM87.4571 18.7616C87.4571 17.5094 87.703 16.3989 88.1949 15.43C88.7018 14.4611 89.38 13.7157 90.2297 13.194C91.0943 12.6723 92.0557 12.4114 93.1141 12.4114C94.0383 12.4114 94.8433 12.5977 95.529 12.9704C96.2296 13.3431 96.7886 13.8126 97.206 14.3791V12.6126H100.359V25H97.206V23.1889C96.8035 23.7702 96.2445 24.2547 95.529 24.6422C94.8284 25.0149 94.0159 25.2012 93.0917 25.2012C92.0483 25.2012 91.0943 24.9329 90.2297 24.3963C89.38 23.8596 88.7018 23.1069 88.1949 22.1379C87.703 21.1541 87.4571 20.0287 87.4571 18.7616ZM97.206 18.8063C97.206 18.0461 97.0569 17.3977 96.7588 16.861C96.4606 16.3095 96.0581 15.8921 95.5513 15.6089C95.0445 15.3107 94.5004 15.1617 93.9191 15.1617C93.3377 15.1617 92.8011 15.3033 92.3091 15.5865C91.8172 15.8697 91.4148 16.2871 91.1017 16.8387C90.8036 17.3753 90.6545 18.0163 90.6545 18.7616C90.6545 19.5069 90.8036 20.1628 91.1017 20.7293C91.4148 21.2808 91.8172 21.7056 92.3091 22.0038C92.816 22.3019 93.3526 22.451 93.9191 22.451C94.5004 22.451 95.0445 22.3094 95.5513 22.0261C96.0581 21.728 96.4606 21.3106 96.7588 20.774C97.0569 20.2224 97.206 19.5666 97.206 18.8063ZM105.004 11.1369C104.452 11.1369 103.99 10.9655 103.617 10.6226C103.26 10.2649 103.081 9.82511 103.081 9.30338C103.081 8.78165 103.26 8.34936 103.617 8.00651C103.99 7.64875 104.452 7.46988 105.004 7.46988C105.555 7.46988 106.01 7.64875 106.368 8.00651C106.74 8.34936 106.927 8.78165 106.927 9.30338C106.927 9.82511 106.74 10.2649 106.368 10.6226C106.01 10.9655 105.555 11.1369 105.004 11.1369ZM106.546 12.6126V25H103.416V12.6126H106.546Z" fill="white"/>
<g clip-path="url(#clip0_289_3191)">
<path d="M5.44854 13.7138L13.6212 27.8963L17.2535 21.593C17.8155 20.6179 17.8155 19.4165 17.2535 18.4413L9.08085 4.25879L5.44854 10.5621C4.88662 11.5373 4.88662 12.7387 5.44854 13.7138Z" fill="#644DF9"/>
<path d="M0 20.0171H5.93516C7.67252 20.0171 9.08084 21.4281 9.08084 23.1688V35.7755L0 20.0171Z" fill="#644DF9"/>
</g>
<defs>
<clipPath id="clip0_289_3191">
<rect width="17.6749" height="31.5167" fill="white" transform="translate(0 4.25879)"/>
</clipPath>
</defs>
</svg>
