<svg width="177" height="22" viewBox="0 0 177 22" fill="none" xmlns="http://www.w3.org/2000/svg">
<g opacity="0.4">
<path d="M7.50074 9.13283C7.38073 9.82883 7.04073 10.4088 6.48073 10.8728C5.92073 11.3288 5.15673 11.5568 4.18873 11.5568H2.58073L1.95673 15.0488H0.864734L2.35273 6.68483H5.05273C5.88473 6.68483 6.50873 6.86483 6.92473 7.22483C7.34073 7.57683 7.54873 8.04883 7.54873 8.64083C7.54873 8.74483 7.53273 8.90883 7.50074 9.13283ZM4.34473 10.6928C4.94473 10.6928 5.41273 10.5568 5.74873 10.2848C6.08473 10.0048 6.29673 9.62083 6.38473 9.13283C6.40873 8.98883 6.42073 8.85683 6.42073 8.73683C6.42073 7.94483 5.91273 7.54883 4.89673 7.54883H3.28873L2.73673 10.6928H4.34473ZM10.706 15.1568C10.154 15.1568 9.66595 15.0448 9.24195 14.8208C8.82595 14.5888 8.50195 14.2688 8.26995 13.8608C8.03795 13.4448 7.92195 12.9648 7.92195 12.4208C7.92195 11.6768 8.09395 10.9968 8.43795 10.3808C8.78195 9.75683 9.25395 9.26483 9.85395 8.90483C10.462 8.54483 11.138 8.36483 11.882 8.36483C12.434 8.36483 12.922 8.48083 13.346 8.71283C13.778 8.93683 14.11 9.25683 14.342 9.67283C14.582 10.0808 14.702 10.5608 14.702 11.1128C14.702 11.8568 14.526 12.5368 14.174 13.1528C13.822 13.7688 13.342 14.2568 12.734 14.6168C12.126 14.9768 11.45 15.1568 10.706 15.1568ZM10.838 14.2328C11.358 14.2328 11.826 14.0928 12.242 13.8128C12.658 13.5248 12.982 13.1488 13.214 12.6848C13.454 12.2128 13.574 11.7088 13.574 11.1728C13.574 10.5648 13.398 10.1008 13.046 9.78083C12.694 9.45283 12.254 9.28883 11.726 9.28883C11.206 9.28883 10.742 9.43283 10.334 9.72083C9.92595 10.0008 9.60995 10.3768 9.38595 10.8488C9.16195 11.3208 9.04995 11.8288 9.04995 12.3728C9.04995 12.9648 9.21795 13.4248 9.55395 13.7528C9.88995 14.0728 10.318 14.2328 10.838 14.2328ZM25.4137 8.47283L22.1977 15.0488H21.0697L20.4217 9.81683L17.9017 15.0488H16.7737L15.8737 8.47283H16.9897L17.5297 13.9928L20.1217 8.47283H21.2497L21.8737 13.9568L24.3337 8.47283H25.4137ZM29.3535 8.36483C29.9055 8.36483 30.3815 8.47283 30.7815 8.68883C31.1895 8.89683 31.4975 9.19283 31.7055 9.57683C31.9215 9.95283 32.0295 10.3848 32.0295 10.8728C32.0295 11.0408 32.0095 11.2448 31.9695 11.4848C31.9375 11.6928 31.8855 11.9088 31.8135 12.1328H26.5575C26.5415 12.2928 26.5335 12.4088 26.5335 12.4808C26.5335 13.0328 26.6975 13.4648 27.0255 13.7768C27.3615 14.0808 27.7975 14.2328 28.3335 14.2328C28.8055 14.2328 29.2175 14.1248 29.5695 13.9088C29.9295 13.6848 30.2015 13.3888 30.3855 13.0208H31.5615C31.2735 13.6528 30.8295 14.1688 30.2295 14.5688C29.6375 14.9608 28.9495 15.1568 28.1655 15.1568C27.3415 15.1568 26.6775 14.9208 26.1735 14.4488C25.6775 13.9688 25.4295 13.3168 25.4295 12.4928C25.4295 12.2608 25.4535 12.0128 25.5015 11.7488C25.6215 11.0688 25.8655 10.4728 26.2335 9.96083C26.6015 9.44883 27.0535 9.05683 27.5895 8.78483C28.1335 8.50483 28.7215 8.36483 29.3535 8.36483ZM30.8655 11.3408C30.8895 11.1808 30.9015 11.0328 30.9015 10.8968C30.9015 10.3848 30.7375 9.98883 30.4095 9.70883C30.0895 9.42883 29.6695 9.28883 29.1495 9.28883C28.5895 9.28883 28.0815 9.47283 27.6255 9.84083C27.1695 10.2008 26.8615 10.7008 26.7015 11.3408H30.8655ZM34.8149 9.72083C35.0789 9.28883 35.4109 8.95283 35.8109 8.71283C36.2109 8.47283 36.6669 8.35283 37.1789 8.35283L36.9749 9.48083H36.6869C36.1189 9.48083 35.6429 9.63283 35.2589 9.93683C34.8829 10.2408 34.6309 10.7528 34.5029 11.4728L33.8669 15.0488H32.7749L33.9389 8.47283H35.0309L34.8149 9.72083ZM41.2715 8.36483C41.8235 8.36483 42.2995 8.47283 42.6995 8.68883C43.1075 8.89683 43.4155 9.19283 43.6235 9.57683C43.8395 9.95283 43.9475 10.3848 43.9475 10.8728C43.9475 11.0408 43.9275 11.2448 43.8875 11.4848C43.8555 11.6928 43.8035 11.9088 43.7315 12.1328H38.4755C38.4595 12.2928 38.4515 12.4088 38.4515 12.4808C38.4515 13.0328 38.6155 13.4648 38.9435 13.7768C39.2795 14.0808 39.7155 14.2328 40.2515 14.2328C40.7235 14.2328 41.1355 14.1248 41.4875 13.9088C41.8475 13.6848 42.1195 13.3888 42.3035 13.0208H43.4795C43.1915 13.6528 42.7475 14.1688 42.1475 14.5688C41.5555 14.9608 40.8675 15.1568 40.0835 15.1568C39.2595 15.1568 38.5955 14.9208 38.0915 14.4488C37.5955 13.9688 37.3475 13.3168 37.3475 12.4928C37.3475 12.2608 37.3715 12.0128 37.4195 11.7488C37.5395 11.0688 37.7835 10.4728 38.1515 9.96083C38.5195 9.44883 38.9715 9.05683 39.5075 8.78483C40.0515 8.50483 40.6395 8.36483 41.2715 8.36483ZM42.7835 11.3408C42.8075 11.1808 42.8195 11.0328 42.8195 10.8968C42.8195 10.3848 42.6555 9.98883 42.3275 9.70883C42.0075 9.42883 41.5875 9.28883 41.0675 9.28883C40.5075 9.28883 39.9995 9.47283 39.5435 9.84083C39.0875 10.2008 38.7795 10.7008 38.6195 11.3408H42.7835ZM44.8609 11.7368C44.9809 11.0648 45.2209 10.4768 45.5809 9.97283C45.9489 9.46083 46.3969 9.06483 46.9249 8.78483C47.4529 8.50483 48.0129 8.36483 48.6049 8.36483C49.1089 8.36483 49.5609 8.48483 49.9609 8.72483C50.3609 8.95683 50.6449 9.26483 50.8129 9.64883L51.4249 6.16883H52.5289L50.9569 15.0488H49.8529L50.0809 13.8128C49.8009 14.2048 49.4249 14.5288 48.9529 14.7848C48.4809 15.0328 47.9609 15.1568 47.3929 15.1568C46.8809 15.1568 46.4289 15.0488 46.0369 14.8328C45.6449 14.6088 45.3369 14.2928 45.1129 13.8848C44.8969 13.4768 44.7889 13.0048 44.7889 12.4688C44.7889 12.2288 44.8129 11.9848 44.8609 11.7368ZM50.4409 11.7488C50.4729 11.5808 50.4889 11.4008 50.4889 11.2088C50.4889 10.6248 50.3129 10.1648 49.9609 9.82883C49.6169 9.48483 49.1769 9.31283 48.6409 9.31283C48.2329 9.31283 47.8409 9.40883 47.4649 9.60083C47.0969 9.79283 46.7809 10.0728 46.5169 10.4408C46.2529 10.8088 46.0769 11.2408 45.9889 11.7368C45.9569 11.9048 45.9409 12.0888 45.9409 12.2888C45.9409 12.8808 46.1129 13.3488 46.4569 13.6928C46.8009 14.0288 47.2409 14.1968 47.7769 14.1968C48.1849 14.1968 48.5729 14.1008 48.9409 13.9088C49.3169 13.7088 49.6369 13.4248 49.9009 13.0568C50.1729 12.6808 50.3529 12.2448 50.4409 11.7488ZM58.4165 9.69683C58.7125 9.30483 59.0965 8.98483 59.5685 8.73683C60.0405 8.48883 60.5525 8.36483 61.1045 8.36483C61.8885 8.36483 62.5165 8.60083 62.9885 9.07283C63.4685 9.54483 63.7085 10.1848 63.7085 10.9928C63.7085 11.2248 63.6845 11.4728 63.6365 11.7368C63.5165 12.4008 63.2725 12.9928 62.9045 13.5128C62.5445 14.0328 62.1005 14.4368 61.5725 14.7248C61.0525 15.0128 60.5005 15.1568 59.9165 15.1568C59.3485 15.1568 58.8725 15.0328 58.4885 14.7848C58.1045 14.5368 57.8365 14.2208 57.6845 13.8368L57.4685 15.0488H56.3765L57.9485 6.16883H59.0405L58.4165 9.69683ZM62.5205 11.7368C62.5525 11.5688 62.5685 11.3848 62.5685 11.1848C62.5685 10.6008 62.3965 10.1448 62.0525 9.81683C61.7085 9.48083 61.2645 9.31283 60.7205 9.31283C60.3205 9.31283 59.9325 9.41283 59.5565 9.61283C59.1805 9.80483 58.8565 10.0888 58.5845 10.4648C58.3205 10.8328 58.1445 11.2608 58.0565 11.7488C58.0245 11.9168 58.0085 12.1008 58.0085 12.3008C58.0085 12.8848 58.1805 13.3488 58.5245 13.6928C58.8765 14.0288 59.3205 14.1968 59.8565 14.1968C60.2645 14.1968 60.6525 14.1008 61.0205 13.9088C61.3965 13.7088 61.7165 13.4248 61.9805 13.0568C62.2525 12.6808 62.4325 12.2408 62.5205 11.7368ZM66.0818 8.47283L67.1978 13.7768L70.1858 8.47283H71.3138L65.6498 18.1448H64.5098L66.3698 14.9768L64.8698 8.47283H66.0818Z" fill="white"/>
<path d="M92.764 16.6241C92.6078 16.6241 92.5124 16.5615 92.4517 16.4385C92.3888 16.3134 92.3888 16.1904 92.4669 16.0653L99.4375 4.09552C99.5156 3.95528 99.6262 3.8323 99.7498 3.73737C99.8908 3.6295 100.062 3.58203 100.283 3.58203H103.181C103.4 3.58203 103.541 3.6295 103.634 3.73737C103.727 3.84525 103.775 3.97038 103.79 4.09552L105.638 16.0653C105.669 16.2357 105.638 16.376 105.545 16.4688C105.452 16.5615 105.326 16.6241 105.2 16.6241H102.929C102.741 16.6241 102.6 16.5766 102.522 16.499C102.443 16.4213 102.381 16.3134 102.365 16.2034L102.053 14.3371H97.0258L95.898 16.2336C95.8351 16.3264 95.757 16.404 95.6464 16.4968C95.5358 16.5896 95.3948 16.6219 95.2083 16.6219H92.764V16.6241ZM98.3726 11.6489H101.867L101.177 6.72119L98.3726 11.6489Z" fill="white"/>
<path d="M107.302 16.6238C107.161 16.6238 107.05 16.5763 106.99 16.4986C106.912 16.421 106.896 16.2958 106.912 16.1729L109.56 3.84493C109.59 3.70469 109.653 3.59681 109.764 3.50404C109.874 3.41127 109.998 3.37891 110.124 3.37891H112.349C112.475 3.37891 112.568 3.42637 112.646 3.50404C112.724 3.59681 112.739 3.70685 112.724 3.84493L110.093 16.1578C110.063 16.298 110 16.4059 109.889 16.4835C109.779 16.5763 109.655 16.6087 109.529 16.6087H107.304V16.6238H107.302Z" fill="white"/>
<path d="M116.934 16.8116C115.963 16.8116 115.132 16.6261 114.475 16.283C113.818 15.9422 113.362 15.3963 113.128 14.6822C112.876 13.968 112.861 13.0964 113.05 12.0695C113.08 11.9767 113.098 11.8666 113.128 11.7286C113.158 11.5883 113.176 11.4805 113.206 11.4179C113.458 10.4384 113.863 9.59912 114.412 8.88283C114.961 8.1838 115.633 7.64011 116.448 7.28197C117.246 6.90872 118.14 6.73828 119.097 6.73828C120.194 6.73828 121.055 6.95619 121.682 7.392C122.309 7.82782 122.716 8.41897 122.92 9.16331C123.124 9.9098 123.124 10.7642 122.92 11.7135L122.842 12.1644C122.812 12.3046 122.749 12.4125 122.623 12.5053C122.497 12.598 122.371 12.6304 122.23 12.6304H116.231V12.693C116.231 12.7232 116.216 12.7404 116.201 12.7706C116.138 13.1288 116.138 13.4546 116.186 13.7652C116.234 14.0608 116.357 14.2938 116.561 14.4794C116.765 14.6649 117.032 14.7426 117.377 14.7426C117.611 14.7426 117.83 14.6951 118.019 14.6175C118.207 14.5398 118.363 14.447 118.504 14.337C118.645 14.2291 118.756 14.1342 118.849 14.0738C118.99 13.9486 119.101 13.871 119.162 13.8408C119.24 13.8106 119.35 13.7933 119.506 13.7933H121.84C121.966 13.7933 122.059 13.8235 122.122 13.9012C122.185 13.9788 122.2 14.0716 122.152 14.1967C122.089 14.4147 121.933 14.6628 121.667 14.9583C121.415 15.2539 121.055 15.5495 120.602 15.8451C120.146 16.1406 119.615 16.3737 119.003 16.5592C118.392 16.7447 117.704 16.8397 116.936 16.8397V16.8095L116.934 16.8116ZM116.637 10.7793H119.817V10.7491C119.942 10.3456 119.958 10.0026 119.879 9.707C119.817 9.41142 119.676 9.17841 119.472 9.02307C119.268 8.86773 118.986 8.77496 118.656 8.77496C118.327 8.77496 118.014 8.85263 117.747 9.02307C117.481 9.17841 117.246 9.41142 117.073 9.707C116.884 10.0026 116.743 10.3607 116.65 10.7491V10.7793H116.635H116.637Z" fill="white"/>
<path d="M123.043 20.1686C122.902 20.1686 122.809 20.1211 122.731 20.0434C122.668 19.9507 122.638 19.8406 122.668 19.7004L125.299 7.38757C125.329 7.24734 125.392 7.13946 125.503 7.04453C125.613 6.95176 125.737 6.9194 125.878 6.9194H127.977C128.118 6.9194 128.212 6.96686 128.29 7.04453C128.368 7.1222 128.383 7.24734 128.353 7.38757L128.227 8.0715C128.602 7.68315 129.025 7.37247 129.48 7.1071C129.934 6.84388 130.53 6.71875 131.25 6.71875C131.862 6.71875 132.393 6.81152 132.864 7.01433C133.319 7.19987 133.694 7.49545 133.976 7.8687C134.258 8.24194 134.447 8.70796 134.525 9.25165C134.618 9.79534 134.603 10.4167 134.495 11.1006C134.464 11.3487 134.417 11.5666 134.369 11.7543C134.321 11.9399 134.276 12.1578 134.213 12.4081C134.041 13.0618 133.805 13.668 133.523 14.2117C133.241 14.7554 132.896 15.2214 132.506 15.5947C132.113 15.9679 131.645 16.2786 131.127 16.4814C130.61 16.6842 130.046 16.7921 129.42 16.7921C128.793 16.7921 128.229 16.6842 127.791 16.4663C127.338 16.2484 127.008 15.9377 126.819 15.5494L125.911 19.6853C125.88 19.8255 125.817 19.9334 125.707 20.0262C125.596 20.1039 125.472 20.1513 125.347 20.1513H123.061L123.045 20.1664L123.043 20.1686ZM128.76 14.3088C129.168 14.3088 129.513 14.216 129.795 14.0456C130.077 13.8752 130.296 13.6422 130.485 13.3315C130.673 13.0359 130.814 12.7101 130.923 12.3369C130.986 12.1513 131.033 11.9636 131.079 11.7608C131.127 11.558 131.157 11.3725 131.157 11.1848C131.205 10.8266 131.22 10.5008 131.172 10.2053C131.142 9.90969 131.016 9.67668 130.827 9.49113C130.639 9.32069 130.341 9.22792 129.919 9.22792C129.496 9.22792 129.166 9.32069 128.854 9.49113C128.541 9.67668 128.305 9.91184 128.118 10.1902C127.932 10.4685 127.806 10.7813 127.711 11.1222C127.633 11.3552 127.57 11.5882 127.539 11.8061C127.492 12.024 127.461 12.2721 127.414 12.5203C127.366 12.8309 127.366 13.1265 127.414 13.3919C127.461 13.6551 127.602 13.873 127.821 14.0456C128.04 14.216 128.337 14.2937 128.73 14.2937L128.76 14.3088Z" fill="white"/>
<path d="M135.653 16.6225C135.512 16.6225 135.402 16.5751 135.341 16.4974C135.263 16.4197 135.248 16.2946 135.263 16.1716L137.911 3.8588C137.942 3.71856 138.004 3.61069 138.115 3.51576C138.226 3.42299 138.349 3.39062 138.475 3.39062H140.887C141.013 3.39062 141.106 3.43809 141.184 3.51576C141.262 3.60853 141.277 3.71856 141.262 3.8588L140.353 8.02493C140.761 7.63658 141.199 7.3259 141.7 7.10799C142.201 6.87498 142.765 6.76711 143.422 6.76711C144.19 6.76711 144.832 6.92244 145.366 7.24823C145.899 7.57401 146.259 8.04003 146.478 8.67865C146.697 9.3 146.697 10.0767 146.493 10.9785L145.366 16.1867C145.335 16.327 145.272 16.4348 145.162 16.5125C145.051 16.6053 144.943 16.6376 144.817 16.6376H142.39C142.249 16.6376 142.138 16.5902 142.078 16.5125C141.999 16.4348 141.984 16.3097 141.999 16.1867L143.097 11.0886C143.223 10.4974 143.19 10.0465 143.004 9.73582C142.815 9.42514 142.455 9.2547 141.906 9.2547C141.561 9.2547 141.232 9.31727 140.935 9.4575C140.637 9.59774 140.371 9.79839 140.167 10.0789C139.948 10.3593 139.807 10.6851 139.714 11.0735L138.649 16.1716C138.618 16.3119 138.555 16.4197 138.445 16.4974C138.334 16.5902 138.211 16.6225 138.085 16.6225H135.658H135.653Z" fill="white"/>
<path d="M152.851 16.4974C152.914 16.575 153.022 16.6225 153.163 16.6225H155.389C155.514 16.6225 155.64 16.5923 155.749 16.4974C155.859 16.4197 155.92 16.3118 155.953 16.1716L157.816 7.40352C157.846 7.26328 157.831 7.1403 157.753 7.06263C157.675 6.98496 157.581 6.9375 157.456 6.9375H155.23C155.089 6.9375 154.964 6.9677 154.855 7.06263C154.745 7.15541 154.684 7.26544 154.651 7.40352L152.771 16.1716C152.756 16.2967 152.771 16.4197 152.849 16.4974H152.851Z" fill="white"/>
<path d="M158.538 16.6225C158.397 16.6225 158.287 16.575 158.226 16.4974C158.148 16.4197 158.133 16.2946 158.148 16.1716L160.028 7.40352C160.059 7.26328 160.121 7.1554 160.232 7.06263C160.343 6.96986 160.466 6.9375 160.607 6.9375H162.659C162.8 6.9375 162.893 6.98496 162.971 7.06263C163.049 7.1403 163.065 7.26544 163.034 7.40352L162.908 8.03998C163.127 7.82207 163.364 7.60416 163.613 7.41862C163.865 7.23307 164.177 7.06047 164.522 6.9375C164.867 6.81236 165.275 6.75195 165.76 6.75195C166.481 6.75195 167.077 6.89219 167.53 7.18777C167.986 7.46824 168.298 7.87169 168.454 8.38518C168.862 7.91916 169.315 7.53081 169.816 7.22013C170.317 6.90945 170.929 6.76921 171.618 6.76921C172.308 6.76921 172.887 6.90945 173.373 7.20503C173.859 7.5006 174.204 7.95152 174.408 8.55778C174.611 9.16403 174.611 9.94073 174.408 10.9051L173.28 16.2061C173.249 16.3463 173.187 16.4542 173.076 16.5319C172.965 16.6247 172.842 16.657 172.716 16.657H170.538C170.397 16.657 170.287 16.6095 170.226 16.5319C170.148 16.4542 170.133 16.3291 170.148 16.2061L171.261 11.0454C171.354 10.6096 171.386 10.2687 171.324 10.0033C171.261 9.75519 171.135 9.56748 170.963 9.45961C170.792 9.35174 170.556 9.28917 170.289 9.28917C170.055 9.28917 169.803 9.35174 169.554 9.45961C169.302 9.56748 169.083 9.75519 168.879 10.0033C168.675 10.2514 168.534 10.6096 168.441 11.0454L167.329 16.2061C167.298 16.3463 167.235 16.4542 167.125 16.5319C167.014 16.6247 166.89 16.657 166.765 16.657H164.587C164.446 16.657 164.336 16.6095 164.275 16.5319C164.197 16.4542 164.182 16.3291 164.197 16.2061L165.325 11.0454C165.418 10.6096 165.418 10.2687 165.355 10.0033C165.292 9.74008 165.166 9.56748 164.995 9.45961C164.824 9.35174 164.602 9.28917 164.338 9.28917C164.103 9.28917 163.852 9.35174 163.602 9.45961C163.351 9.56748 163.132 9.75519 162.928 10.0033C162.724 10.2514 162.583 10.5945 162.49 11.013L161.362 16.2061C161.332 16.3463 161.269 16.4542 161.158 16.5319C161.048 16.6247 160.924 16.657 160.798 16.657H158.573L158.543 16.6268L158.538 16.6225Z" fill="white"/>
<path d="M149.332 16.6539C150.264 16.6539 151.019 15.9024 151.019 14.9754C151.019 14.0484 150.264 13.2969 149.332 13.2969C148.4 13.2969 147.645 14.0484 147.645 14.9754C147.645 15.9024 148.4 16.6539 149.332 16.6539Z" fill="white"/>
<path d="M156.916 5.89613C157.848 5.89613 158.603 5.14462 158.603 4.21759C158.603 3.29057 157.848 2.53906 156.916 2.53906C155.984 2.53906 155.229 3.29057 155.229 4.21759C155.229 5.14462 155.984 5.89613 156.916 5.89613Z" fill="white"/>
<path d="M85.7752 8.50539C87.0927 8.50539 88.1597 7.4384 88.1597 6.12086C88.1597 4.80332 87.0927 3.73633 85.7752 3.73633C84.4576 3.73633 83.3906 4.80332 83.3906 6.12086C83.3906 7.4384 84.4576 8.50539 85.7752 8.50539Z" fill="white"/>
<path d="M77.6287 16.6519C78.9462 16.6519 80.0132 15.5849 80.0132 14.2673C80.0132 12.9498 78.9462 11.8828 77.6287 11.8828C76.3111 11.8828 75.2441 12.952 75.2441 14.2673C75.2441 15.5827 76.3111 16.6519 77.6287 16.6519Z" fill="white"/>
<path d="M84.0917 4.43563C81.8303 3.49824 79.1326 3.94966 77.2945 5.78557C75.4564 7.62365 75.0072 10.3235 75.9424 12.5828L84.0917 4.43347V4.43563Z" fill="white"/>
<path d="M79.3125 15.9557C81.5739 16.8931 84.2716 16.4417 86.1097 14.6058C87.9478 12.7677 88.3971 10.0679 87.4597 7.80859L79.3125 15.9557Z" fill="white"/>
</g>
</svg>
