<svg width="20" height="20" viewBox="0 0 20 20" fill="none" xmlns="http://www.w3.org/2000/svg">
  <path
    d="M12.9167 11.4583C12.9167 11.1132 13.1965 10.8333 13.5417 10.8333H15.2083C15.5535 10.8333 15.8333 11.1132 15.8333 11.4583C15.8333 11.8035 15.5535 12.0833 15.2083 12.0833H13.5417C13.1965 12.0833 12.9167 11.8035 12.9167 11.4583ZM2.5 4.16667H2.51144C2.61508 3.22917 3.40988 2.5 4.375 2.5H13.9583C14.9938 2.5 15.8333 3.33947 15.8333 4.375V5.07247C17.0278 5.35462 17.9167 6.42768 17.9167 7.70833V14.7917C17.9167 16.2874 16.7041 17.5 15.2083 17.5H5.20833C3.71257 17.5 2.5 16.2874 2.5 14.7917V4.16667ZM15.2083 6.25H3.75V14.7917C3.75 15.5971 4.40292 16.25 5.20833 16.25H15.2083C16.0138 16.25 16.6667 15.5971 16.6667 14.7917V7.70833C16.6667 6.90292 16.0138 6.25 15.2083 6.25ZM14.5833 5V4.375C14.5833 4.02982 14.3035 3.75 13.9583 3.75H4.375C4.02983 3.75 3.75 4.02982 3.75 4.375C3.75 4.72018 4.02983 5 4.375 5H14.5833Z"
    fill="white"/>
</svg>
