<svg width="24" height="24" viewBox="0 0 24 24" fill="none" xmlns="http://www.w3.org/2000/svg">
  <path
    d="M11.7496 3C12.1293 3 12.4432 3.28201 12.4929 3.64808L12.4998 3.74985L12.501 11H19.7541C20.1683 11 20.5041 11.3358 20.5041 11.75C20.5041 12.1297 20.2219 12.4435 19.8559 12.4932L19.7541 12.5H12.501L12.503 19.7491C12.5031 20.1633 12.1674 20.4993 11.7532 20.4993C11.3735 20.4993 11.0596 20.2173 11.0099 19.8512L11.003 19.7494L11.001 12.5H3.75195C3.33773 12.5 3.00195 12.1642 3.00195 11.75C3.00195 11.3703 3.2841 11.0565 3.65018 11.0068L3.75195 11H11.001L10.9998 3.75015C10.9997 3.33594 11.3354 3 11.7496 3Z"
    fill="#3A2986"/>
</svg>
