<svg width="24" height="24" viewBox="0 0 24 24" fill="none" xmlns="http://www.w3.org/2000/svg">
  <g id="icon">
    <path id="Vector"
          d="M10.6328 19.186C10.916 19.4558 11.3644 19.4448 11.6341 19.1617C11.9039 18.8785 11.893 18.4301 11.6098 18.1604L5.70672 12.5376H19.6197C20.0109 12.5376 20.3279 12.2205 20.3279 11.8294C20.3279 11.4383 20.0109 11.1212 19.6197 11.1212H5.70663L11.6098 5.49835C11.893 5.22858 11.9038 4.78031 11.6341 4.49709C11.3644 4.21389 10.916 4.20298 10.6328 4.47275L3.62736 11.1456C3.46784 11.2976 3.37346 11.4913 3.34421 11.6928C3.33558 11.737 3.33105 11.7827 3.33105 11.8294C3.33105 11.8762 3.3356 11.9219 3.34426 11.9662C3.37357 12.1676 3.46794 12.3613 3.62736 12.5131L10.6328 19.186Z"
          fill="#9895ba"/>
  </g>
</svg>
