<svg width="24" height="24" viewBox="0 0 24 24" fill="none" xmlns="http://www.w3.org/2000/svg">
<path d="M11.7702 3.75774C14.1116 1.41416 17.9106 1.41416 20.2538 3.7573C22.5368 6.04037 22.5954 9.70558 20.4294 12.0595L20.2412 12.2569L11.4412 21.0551L11.4046 21.0854C9.94346 22.4021 7.68946 22.3574 6.28209 20.95C4.96307 19.631 4.84095 17.5683 5.91574 16.1116C5.93908 16.0662 5.96733 16.0225 6.00054 15.9814L6.0541 15.9217L6.141 15.834L6.28209 15.6861L6.285 15.689L13.7207 8.23463C13.9866 7.96801 14.4032 7.94325 14.6971 8.16071L14.7814 8.23322C15.048 8.49913 15.0727 8.91576 14.8553 9.20966L14.7828 9.29388L7.1882 16.907C6.47056 17.7826 6.52044 19.0769 7.33784 19.8943C8.1669 20.7233 9.48655 20.7628 10.3623 20.0127L19.195 11.1822C20.9505 9.42456 20.9505 6.57532 19.1931 4.81796C17.4907 3.11552 14.7635 3.06232 12.997 4.65836L12.8292 4.81796L12.8166 4.83227L3.28033 14.3686C2.98744 14.6615 2.51257 14.6615 2.21967 14.3686C1.95341 14.1024 1.9292 13.6857 2.14705 13.3921L2.21967 13.308L11.7685 3.7573L11.7702 3.75774Z" fill="currentColor"/>
</svg>
