<svg width="45" height="45" viewBox="0 0 45 45" fill="none" xmlns="http://www.w3.org/2000/svg">
<rect x="1.28906" y="1.02087" width="43" height="43" rx="21.5" fill="#3A2986"/>
<rect x="1.28906" y="1.02087" width="43" height="43" rx="21.5" stroke="#DEE1FF"/>
<path d="M25.9828 26.3426C27.7113 26.6957 29.5054 26.5331 31.1422 25.8749C30.4722 27.5422 29.3185 28.9709 27.8297 29.9771C26.341 30.9833 24.5851 31.5209 22.7882 31.5209C20.6986 31.5186 18.6748 30.7895 17.0639 29.4586C15.4529 28.1278 14.355 26.2779 13.9585 24.2263C13.562 22.1746 13.8915 20.0489 14.8905 18.2136C15.8896 16.3783 17.4959 14.9476 19.4342 14.1669C18.776 15.8036 18.6134 17.5978 18.9665 19.3262C19.3196 21.0547 20.1729 22.6412 21.4204 23.8887C22.6678 25.1361 24.2544 25.9895 25.9828 26.3426Z" stroke="white" stroke-linecap="round" stroke-linejoin="round"/>
</svg>
