<svg width="24" height="24" viewBox="0 0 24 24" fill="none" xmlns="http://www.w3.org/2000/svg">
<path d="M18.7498 20.495C19.164 20.4949 19.5 20.8306 19.5 21.2448C19.5 21.659 19.1644 21.9949 18.7502 21.995L5.75022 21.9988C5.336 21.9989 5 21.6632 5 21.249C5 20.8348 5.33557 20.4989 5.74978 20.4988L18.7498 20.495ZM12.1482 2.00685L12.25 2C12.6297 2 12.9435 2.28215 12.9932 2.64823L13 2.75L12.999 16.435L16.7208 12.7146C16.9871 12.4484 17.4038 12.4242 17.6974 12.6421L17.7815 12.7147C18.0477 12.981 18.0719 13.3977 17.854 13.6913L17.7814 13.7754L12.7837 18.772C12.5176 19.0381 12.1012 19.0624 11.8076 18.8448L11.7235 18.7723L6.72003 13.7757C6.42694 13.483 6.42661 13.0081 6.71931 12.715C6.98539 12.4486 7.40204 12.4241 7.6958 12.6418L7.77997 12.7143L11.499 16.428L11.5 2.75C11.5 2.3703 11.7822 2.05651 12.1482 2.00685Z" fill="#3A2986"/>
</svg>
