<svg width="24" height="24" viewBox="0 0 24 24" fill="none" xmlns="http://www.w3.org/2000/svg">
<path d="M6.88882 5.33333C6.02972 5.33333 5.3333 6.02978 5.3333 6.88889V17.1111C5.3333 17.9702 6.02972 18.6667 6.88882 18.6667H17.1108C17.9699 18.6667 18.6663 17.9702 18.6663 17.1111V13.5556C18.6663 13.1874 18.9648 12.8889 19.333 12.8889C19.7012 12.8889 19.9996 13.1874 19.9996 13.5556V17.1111C19.9996 18.7066 18.7062 20 17.1108 20H6.88882C5.29337 20 4 18.7066 4 17.1111V6.88889C4 5.2934 5.29337 4 6.88882 4H10.4443C10.8124 4 11.1109 4.29848 11.1109 4.66667C11.1109 5.03485 10.8124 5.33333 10.4443 5.33333H6.88882ZM12.8886 4.66667C12.8886 4.29848 13.1871 4 13.5553 4H19.3333C19.7015 4 20 4.29848 20 4.66667V10.4444C20 10.8126 19.7015 11.1111 19.3333 11.1111C18.9652 11.1111 18.6667 10.8126 18.6667 10.4444V6.27621L14.0267 10.9159C13.7663 11.1762 13.3443 11.1762 13.0839 10.9158C12.8236 10.6555 12.8236 10.2333 13.0839 9.97301L17.724 5.33333H13.5553C13.1871 5.33333 12.8886 5.03485 12.8886 4.66667Z" fill="#3A2986"/>
</svg>
