<svg width="24" height="24" viewBox="0 0 24 24" fill="none" xmlns="http://www.w3.org/2000/svg">
  <path
    d="M7.42407 2.83052C7.60147 2.33254 8.07294 2 8.60158 2H15.0552C15.9084 2 16.5108 2.83587 16.241 3.64528L14.7895 8H18.7482C19.8524 8 20.4143 9.32683 19.646 10.1198L8.58502 21.536C7.53128 22.6236 5.71307 21.6422 6.04397 20.1645L7.3132 14.4964L5.74475 14.4904C4.538 14.4858 3.69797 13.2899 4.10294 12.1532L7.42407 2.83052ZM8.77791 3.5L5.51595 12.6565C5.4581 12.8189 5.57811 12.9898 5.7505 12.9904L8.25179 13C8.47899 13.0009 8.69355 13.1047 8.83523 13.2823C8.97691 13.4599 9.03044 13.6922 8.98079 13.9139L7.50773 20.4923L18.1579 9.5H13.7489C13.5078 9.5 13.2814 9.38411 13.1405 9.18853C12.9995 8.99296 12.9612 8.74154 13.0374 8.51283L14.7083 3.5H8.77791Z"
    fill="#3A2986"/>
</svg>
