<svg width="20" height="20" viewBox="0 0 20 20" fill="none" xmlns="http://www.w3.org/2000/svg">
  <g id="icon">
    <path id="Vector"
          d="M2.91699 5.20833V6.66667H6.77423C6.93998 6.66667 7.09896 6.60082 7.21617 6.48361L8.49141 5.20833L7.21617 3.93306C7.09896 3.81585 6.93998 3.75 6.77423 3.75H4.37533C3.56991 3.75 2.91699 4.40292 2.91699 5.20833ZM1.66699 5.20833C1.66699 3.71256 2.87955 2.5 4.37533 2.5H6.77423C7.27151 2.5 7.74842 2.69754 8.10005 3.04917L9.63424 4.58333H15.6253C17.1211 4.58333 18.3337 5.79589 18.3337 7.29167V14.7917C18.3337 16.2874 17.1211 17.5 15.6253 17.5H4.37533C2.87955 17.5 1.66699 16.2874 1.66699 14.7917V5.20833ZM2.91699 7.91667V14.7917C2.91699 15.5971 3.56991 16.25 4.37533 16.25H15.6253C16.4307 16.25 17.0837 15.5971 17.0837 14.7917V7.29167C17.0837 6.48625 16.4307 5.83333 15.6253 5.83333H9.63424L8.10005 7.36749C7.74842 7.71912 7.27151 7.91667 6.77423 7.91667H2.91699Z"
          fill="#3A2986"/>
  </g>
</svg>
