<svg width="45" height="44" viewBox="0 0 45 44" fill="none" xmlns="http://www.w3.org/2000/svg">
  <rect x="1" y="0.5" width="43" height="43" rx="21.5" fill="white"/>
  <rect x="1" y="0.5" width="43" height="43" rx="21.5" stroke="#DEE1FF"/>
  <path
    d="M19.9033 27.5556H25.0956M22.5 12V13.1111M29.5711 14.9289L28.7856 15.7144M32.5 22H31.3889M13.6111 22H12.5M16.2144 15.7144L15.4289 14.9289M18.5711 25.9289C17.7943 25.1519 17.2653 24.162 17.0511 23.0843C16.8368 22.0067 16.9469 20.8897 17.3675 19.8747C17.788 18.8596 18.5001 17.992 19.4137 17.3817C20.3272 16.7713 21.4013 16.4455 22.5 16.4455C23.5987 16.4455 24.6728 16.7713 25.5863 17.3817C26.4999 17.992 27.212 18.8596 27.6325 19.8747C28.0531 20.8897 28.1632 22.0067 27.9489 23.0843C27.7347 24.162 27.2057 25.1519 26.4289 25.9289L25.82 26.5367C25.4719 26.8848 25.1958 27.2982 25.0074 27.753C24.8191 28.2079 24.7222 28.6954 24.7222 29.1878V29.7778C24.7222 30.3671 24.4881 30.9324 24.0713 31.3491C23.6546 31.7659 23.0894 32 22.5 32C21.9106 32 21.3454 31.7659 20.9287 31.3491C20.5119 30.9324 20.2778 30.3671 20.2778 29.7778V29.1878C20.2778 28.1933 19.8822 27.2389 19.18 26.5367L18.5711 25.9289Z"
    stroke="#3A2986" stroke-linecap="round" stroke-linejoin="round"/>
</svg>
