<svg width="20" height="20" viewBox="0 0 20 20" fill="none" xmlns="http://www.w3.org/2000/svg">
  <path
    d="M3.25 15.5001C1.45507 15.5001 0 14.045 0 12.2501V3.75012C0 1.95519 1.45507 0.500122 3.25 0.500122H16.75C18.5449 0.500122 20 1.95519 20 3.75012V12.2501C20 14.045 18.5449 15.5001 16.75 15.5001H11.0125L5.99868 19.2508C5.44585 19.6643 4.6625 19.5513 4.24901 18.9985C4.08736 18.7823 4 18.5197 4 18.25L3.99921 15.5001H3.25ZM10.5135 14.0001H16.75C17.7165 14.0001 18.5 13.2166 18.5 12.2501V3.75012C18.5 2.78362 17.7165 2.00012 16.75 2.00012H3.25C2.2835 2.00012 1.5 2.78362 1.5 3.75012V12.2501C1.5 13.2166 2.2835 14.0001 3.25 14.0001H5.49879L5.499 14.7499L5.49986 17.7507L10.5135 14.0001Z"
    fill="#644DF9"/>
</svg>
