<svg width="226" height="21" viewBox="0 0 226 21" fill="none" xmlns="http://www.w3.org/2000/svg">
<g clip-path="url(#clip0_17_650)">
<path d="M206.811 16.6577C206.647 16.6577 206.518 16.604 206.446 16.5159C206.356 16.4277 206.338 16.2858 206.356 16.1463L208.552 6.19883C208.587 6.03972 208.66 5.91734 208.79 5.81209C208.919 5.70685 209.064 5.67011 209.228 5.67011H211.624C211.79 5.67011 211.898 5.72397 211.989 5.81209C212.08 5.90021 212.098 6.04219 212.063 6.19883L211.916 6.9209C212.172 6.67368 212.448 6.42645 212.739 6.21595C213.033 6.00546 213.398 5.80962 213.801 5.67011C214.203 5.52813 214.679 5.45962 215.247 5.45962C216.088 5.45962 216.784 5.61873 217.314 5.95407C217.846 6.27229 218.21 6.73001 218.393 7.31249C218.87 6.78388 219.399 6.34328 219.984 5.99081C220.569 5.63833 221.283 5.47922 222.089 5.47922C222.894 5.47922 223.571 5.63833 224.139 5.97368C224.705 6.30902 225.108 6.82051 225.346 7.50833C225.585 8.19615 225.585 9.07734 225.346 10.1714L224.03 16.1854C223.994 16.3445 223.92 16.4668 223.791 16.555C223.662 16.6602 223.518 16.6969 223.371 16.6969H220.828C220.663 16.6969 220.533 16.6431 220.463 16.555C220.371 16.4668 220.354 16.3249 220.371 16.1854L221.671 10.3305C221.78 9.83605 221.818 9.44932 221.744 9.14833C221.671 8.86685 221.524 8.65388 221.324 8.5315C221.123 8.40912 220.847 8.33813 220.536 8.33813C220.262 8.33813 219.969 8.40912 219.677 8.5315C219.383 8.65388 219.128 8.86685 218.889 9.14833C218.652 9.42982 218.486 9.83605 218.377 10.3305L217.079 16.1854C217.043 16.3445 216.97 16.4668 216.84 16.555C216.711 16.6602 216.567 16.6969 216.419 16.6969H213.876C213.712 16.6969 213.583 16.6431 213.511 16.555C213.42 16.4668 213.403 16.3249 213.42 16.1854L214.737 10.3305C214.847 9.83605 214.847 9.44932 214.773 9.14833C214.7 8.84972 214.553 8.65388 214.353 8.5315C214.152 8.40912 213.894 8.33813 213.586 8.33813C213.311 8.33813 213.018 8.40912 212.726 8.5315C212.433 8.65388 212.177 8.86685 211.938 9.14833C211.701 9.42982 211.536 9.81892 211.427 10.2938L210.11 16.1854C210.074 16.3445 210.001 16.4668 209.871 16.555C209.743 16.6602 209.598 16.6969 209.451 16.6969H206.852L206.816 16.6627L206.811 16.6577Z" fill="#3A2986"/>
<path d="M200.17 16.5159C200.243 16.604 200.37 16.6577 200.534 16.6577H203.133C203.28 16.6577 203.427 16.6235 203.554 16.5159C203.683 16.4277 203.754 16.3054 203.792 16.1463L205.968 6.19883C206.003 6.03972 205.986 5.90021 205.895 5.81209C205.803 5.72397 205.694 5.67011 205.547 5.67011H202.949C202.784 5.67011 202.637 5.70437 202.51 5.81209C202.381 5.91734 202.31 6.04219 202.272 6.19883L200.076 16.1463C200.058 16.2881 200.076 16.4277 200.167 16.5159H200.17Z" fill="#3A2986"/>
<path d="M204.917 4.48793C206.005 4.48793 206.888 3.63536 206.888 2.58358C206.888 1.5318 206.005 0.679321 204.917 0.679321C203.828 0.679321 202.946 1.5319 202.946 2.58358C202.946 3.63526 203.829 4.48793 204.917 4.48793Z" fill="#3A2986"/>
<path d="M196.058 16.6921C197.147 16.6921 198.029 15.8394 198.029 14.7877C198.029 13.7361 197.147 12.8835 196.058 12.8835C194.97 12.8835 194.087 13.7361 194.087 14.7877C194.087 15.8394 194.97 16.6921 196.058 16.6921Z" fill="#3A2986"/>
<path d="M180.082 16.6577C179.917 16.6577 179.788 16.604 179.717 16.5159C179.626 16.4277 179.608 16.2858 179.626 16.1463L182.719 2.17734C182.754 2.01824 182.828 1.89586 182.957 1.78814C183.086 1.68289 183.23 1.64616 183.377 1.64616H186.194C186.341 1.64616 186.45 1.70002 186.541 1.78814C186.632 1.89338 186.65 2.01824 186.632 2.17734L185.571 6.90378C186.047 6.46319 186.559 6.11071 187.144 5.86348C187.729 5.59913 188.388 5.47675 189.155 5.47675C190.052 5.47675 190.802 5.65299 191.425 6.02259C192.048 6.3922 192.469 6.92091 192.725 7.64546C192.981 8.35032 192.981 9.2315 192.742 10.2547L191.425 16.1634C191.39 16.3225 191.316 16.4449 191.187 16.533C191.058 16.6382 190.931 16.675 190.784 16.675H187.95C187.785 16.675 187.656 16.6211 187.585 16.533C187.494 16.4449 187.476 16.3029 187.494 16.1634L188.775 10.3795C188.922 9.70883 188.884 9.19725 188.667 8.84477C188.446 8.4923 188.026 8.29893 187.385 8.29893C186.982 8.29893 186.597 8.36992 186.25 8.52903C185.903 8.68814 185.591 8.91576 185.353 9.23398C185.097 9.5522 184.933 9.9218 184.824 10.3624L183.58 16.1463C183.545 16.3054 183.471 16.4277 183.342 16.5159C183.213 16.6211 183.068 16.6577 182.921 16.6577H180.082Z" fill="#3A2986"/>
<path d="M165.354 20.6793C165.189 20.6793 165.08 20.6255 164.989 20.5373C164.916 20.4321 164.88 20.3072 164.916 20.1481L167.988 6.17922C168.024 6.02011 168.097 5.89774 168.227 5.79011C168.356 5.68487 168.5 5.64813 168.665 5.64813H171.117C171.281 5.64813 171.39 5.70199 171.482 5.79011C171.573 5.87823 171.591 6.02011 171.555 6.17922L171.408 6.95516C171.846 6.51457 172.34 6.16209 172.872 5.8611C173.402 5.56249 174.098 5.42051 174.939 5.42051C175.654 5.42051 176.274 5.52576 176.824 5.75586C177.356 5.96635 177.794 6.3016 178.124 6.72506C178.453 7.14853 178.673 7.67724 178.764 8.29407C178.873 8.9109 178.856 9.61576 178.729 10.3917C178.694 10.6732 178.638 10.9204 178.582 11.1334C178.526 11.3439 178.473 11.5911 178.4 11.875C178.2 12.6166 177.923 13.3045 177.594 13.9213C177.265 14.5381 176.862 15.0667 176.406 15.4902C175.948 15.9137 175.4 16.2662 174.795 16.4963C174.192 16.7264 173.533 16.8487 172.801 16.8487C172.069 16.8487 171.411 16.7263 170.899 16.4791C170.37 16.2319 169.984 15.8794 169.764 15.4388L168.703 20.131C168.667 20.2901 168.594 20.4125 168.465 20.5177C168.335 20.6059 168.191 20.6597 168.044 20.6597H165.374L165.356 20.6768L165.354 20.6793ZM172.031 14.0314C172.508 14.0314 172.91 13.9262 173.24 13.7328C173.569 13.5394 173.825 13.2751 174.045 12.9226C174.266 12.5872 174.43 12.2177 174.557 11.7943C174.63 11.5838 174.686 11.3708 174.739 11.1407C174.795 10.9106 174.83 10.7001 174.83 10.4871C174.886 10.0809 174.904 9.7113 174.848 9.37595C174.813 9.04061 174.666 8.77625 174.445 8.56576C174.225 8.37239 173.878 8.26714 173.384 8.26714C172.89 8.26714 172.505 8.37239 172.14 8.56576C171.775 8.77625 171.499 9.04308 171.281 9.35883C171.064 9.67457 170.917 10.0294 170.805 10.4162C170.714 10.6805 170.641 10.9449 170.605 11.1921C170.549 11.4393 170.514 11.7208 170.458 12.0023C170.403 12.3548 170.403 12.6901 170.458 12.9912C170.514 13.2898 170.679 13.5369 170.934 13.7328C171.19 13.9262 171.537 14.0143 171.996 14.0143L172.031 14.0314Z" fill="#3A2986"/>
<path d="M158.218 16.8707C157.083 16.8707 156.113 16.6602 155.345 16.271C154.578 15.8843 154.046 15.2651 153.772 14.4549C153.478 13.6447 153.461 12.6559 153.681 11.4907C153.717 11.3855 153.737 11.2606 153.772 11.104C153.808 10.9449 153.828 10.8225 153.864 10.7515C154.157 9.64031 154.631 8.68813 155.272 7.87546C155.913 7.08249 156.698 6.46566 157.651 6.05932C158.583 5.63586 159.627 5.44249 160.744 5.44249C162.025 5.44249 163.031 5.68972 163.763 6.18417C164.495 6.67863 164.971 7.34922 165.21 8.19368C165.448 9.04061 165.448 10.0099 165.21 11.0868L165.118 11.5984C165.083 11.7575 165.009 11.8799 164.863 11.9852C164.716 12.0904 164.569 12.1271 164.404 12.1271H157.397V12.1981C157.397 12.2324 157.38 12.252 157.362 12.2863C157.288 12.6926 157.288 13.0621 157.344 13.4146C157.4 13.7499 157.544 14.0143 157.782 14.2248C158.02 14.4353 158.332 14.5234 158.735 14.5234C159.008 14.5234 159.264 14.4695 159.485 14.3814C159.705 14.2933 159.887 14.188 160.052 14.0633C160.217 13.9409 160.346 13.8332 160.455 13.7647C160.62 13.6227 160.749 13.5346 160.82 13.5003C160.911 13.4661 161.04 13.4464 161.222 13.4464H163.948C164.095 13.4464 164.204 13.4807 164.277 13.5688C164.351 13.6569 164.369 13.7622 164.313 13.9042C164.239 14.1514 164.057 14.4329 163.745 14.7681C163.452 15.1035 163.031 15.4388 162.502 15.7742C161.97 16.1095 161.349 16.3739 160.635 16.5844C159.92 16.7949 159.117 16.9026 158.221 16.9026V16.8683L158.218 16.8707ZM157.871 10.027H161.585V9.99279C161.732 9.53506 161.749 9.14586 161.658 8.81051C161.585 8.47516 161.42 8.21081 161.182 8.03457C160.944 7.85833 160.614 7.75308 160.229 7.75308C159.844 7.75308 159.48 7.8412 159.168 8.03457C158.856 8.21081 158.583 8.47516 158.38 8.81051C158.16 9.14586 157.995 9.55219 157.886 9.99279V10.027H157.868H157.871Z" fill="#3A2986"/>
<path d="M146.968 16.6577C146.804 16.6577 146.675 16.604 146.604 16.5159C146.513 16.4277 146.495 16.2858 146.513 16.1463L149.605 2.16021C149.641 2.0011 149.714 1.87873 149.844 1.77348C149.973 1.66823 150.117 1.6315 150.264 1.6315H152.863C153.01 1.6315 153.119 1.68536 153.21 1.77348C153.301 1.87873 153.319 2.00348 153.301 2.16021L150.229 16.1291C150.193 16.2882 150.12 16.4106 149.991 16.4987C149.861 16.604 149.717 16.6406 149.57 16.6406H146.971V16.6577H146.968Z" fill="#3A2986"/>
<path d="M129.989 16.6577C129.806 16.6577 129.695 16.5868 129.624 16.4472C129.55 16.3054 129.55 16.1658 129.642 16.0239L137.783 2.44407C137.874 2.28496 138.004 2.14546 138.148 2.03773C138.313 1.91536 138.513 1.8616 138.771 1.8616H142.155C142.411 1.8616 142.576 1.91536 142.685 2.03773C142.794 2.16021 142.85 2.30209 142.867 2.44407L145.025 16.0239C145.061 16.2172 145.025 16.3762 144.916 16.4815C144.808 16.5868 144.661 16.6577 144.514 16.6577H141.862C141.641 16.6577 141.476 16.604 141.385 16.5159C141.294 16.4277 141.221 16.3054 141.203 16.1805L140.838 14.0633H134.966L133.649 16.2148C133.576 16.32 133.484 16.4081 133.355 16.5134C133.226 16.6186 133.061 16.6554 132.843 16.6554H129.989V16.6577ZM136.539 11.0134H140.62L139.815 5.42288L136.539 11.0134Z" fill="#3A2986"/>
<path d="M114.314 15.8041C116.963 16.8656 120.124 16.3517 122.277 14.2608C124.429 12.1699 124.958 9.10002 123.865 6.52695L114.314 15.8041Z" fill="#3A2986"/>
<path d="M119.898 2.67318C117.249 1.6117 114.088 2.12556 111.936 4.21645C109.783 6.30734 109.254 9.37724 110.347 11.9502L119.898 2.67318Z" fill="#3A2986"/>
<path d="M121.882 7.32516C123.431 7.32516 124.687 6.10511 124.687 4.60011C124.687 3.09511 123.431 1.87506 121.882 1.87506C120.332 1.87506 119.076 3.09511 119.076 4.60011C119.076 6.10511 120.332 7.32516 121.882 7.32516Z" fill="#3A2986"/>
<path d="M112.331 16.6022C113.88 16.6022 115.136 15.3821 115.136 13.8771C115.136 12.3721 113.88 11.1521 112.331 11.1521C110.781 11.1521 109.525 12.3721 109.525 13.8771C109.525 15.3821 110.781 16.6022 112.331 16.6022Z" fill="#3A2986"/>
</g>
<path d="M0.779586 16.1793C0.662253 16.1793 0.566253 16.1367 0.491586 16.0513C0.427586 15.966 0.406253 15.8647 0.427586 15.7473L2.63559 5.41132C2.65692 5.29399 2.71559 5.19265 2.81159 5.10732C2.91825 5.02199 3.03025 4.97932 3.14759 4.97932H7.67559C8.35825 4.97932 8.98759 5.05932 9.56359 5.21932C10.1503 5.37932 10.6463 5.62465 11.0516 5.95532C11.4676 6.27532 11.7609 6.68065 11.9316 7.17132C12.1023 7.66199 12.1183 8.23799 11.9796 8.89932C11.7023 10.222 11.1316 11.1873 10.2676 11.7953C9.40359 12.3927 8.20892 12.6913 6.68359 12.6913H5.24359L4.58759 15.7473C4.56625 15.8647 4.50225 15.966 4.39559 16.0513C4.29959 16.1367 4.19292 16.1793 4.07559 16.1793H0.779586ZM5.78759 9.73132H6.90759C7.07825 9.73132 7.25425 9.66732 7.43559 9.53932C7.62759 9.40065 7.76092 9.17665 7.83559 8.86732C7.86759 8.72865 7.87292 8.58999 7.85159 8.45132C7.84092 8.31265 7.79292 8.19532 7.70759 8.09932C7.62225 8.00332 7.48359 7.95532 7.29159 7.95532H6.17159L5.78759 9.73132ZM15.9968 16.3393C15.0688 16.3393 14.2848 16.206 13.6448 15.9393C13.0048 15.6727 12.5355 15.2727 12.2368 14.7393C11.9488 14.206 11.8582 13.55 11.9648 12.7713C11.9968 12.526 12.0395 12.2753 12.0928 12.0193C12.1462 11.7527 12.2102 11.502 12.2848 11.2673C12.5088 10.478 12.8395 9.82199 13.2768 9.29932C13.7248 8.76599 14.3008 8.36599 15.0048 8.09932C15.7088 7.83265 16.5462 7.69932 17.5168 7.69932C18.3915 7.69932 19.1488 7.83265 19.7888 8.09932C20.4395 8.36599 20.9248 8.76599 21.2448 9.29932C21.5755 9.82199 21.6822 10.478 21.5648 11.2673C21.5222 11.502 21.4742 11.7527 21.4208 12.0193C21.3675 12.2753 21.3088 12.526 21.2448 12.7713C21.0315 13.55 20.7115 14.206 20.2848 14.7393C19.8582 15.2727 19.2928 15.6727 18.5888 15.9393C17.8955 16.206 17.0315 16.3393 15.9968 16.3393ZM16.3808 13.7793C16.6902 13.7793 16.8982 13.694 17.0048 13.5233C17.1222 13.342 17.2342 13.0647 17.3408 12.6913C17.3835 12.5313 17.4368 12.3073 17.5008 12.0193C17.5648 11.7313 17.6075 11.5073 17.6288 11.3473C17.6822 10.9953 17.6875 10.7287 17.6448 10.5473C17.6128 10.3553 17.4422 10.2593 17.1328 10.2593C16.8342 10.2593 16.6262 10.3553 16.5088 10.5473C16.3915 10.7287 16.2848 10.9953 16.1888 11.3473C16.1462 11.5073 16.0928 11.7313 16.0288 12.0193C15.9648 12.3073 15.9222 12.5313 15.9008 12.6913C15.8475 13.0647 15.8368 13.342 15.8688 13.5233C15.9115 13.694 16.0822 13.7793 16.3808 13.7793ZM23.8532 16.1793C23.6932 16.1793 23.5812 16.1367 23.5172 16.0513C23.4532 15.966 23.4159 15.8753 23.4052 15.7793L22.6372 8.37132C22.6265 8.24332 22.6692 8.12599 22.7652 8.01932C22.8719 7.91265 22.9892 7.85932 23.1172 7.85932H25.5012C25.6612 7.85932 25.7732 7.90199 25.8372 7.98732C25.9119 8.07265 25.9545 8.15799 25.9652 8.24332L26.2372 11.5713L27.9812 8.24332C28.0345 8.15799 28.1092 8.07265 28.2052 7.98732C28.3119 7.90199 28.4452 7.85932 28.6052 7.85932H30.0932C30.2532 7.85932 30.3652 7.90199 30.4292 7.98732C30.5039 8.07265 30.5465 8.15799 30.5572 8.24332L30.8932 11.5713L32.5732 8.24332C32.6159 8.15799 32.6905 8.07265 32.7972 7.98732C32.9039 7.90199 33.0372 7.85932 33.1972 7.85932H35.8212C35.9705 7.85932 36.0612 7.91799 36.0932 8.03532C36.1359 8.14199 36.1305 8.25399 36.0772 8.37132L32.1732 15.7793C32.1305 15.8753 32.0559 15.966 31.9492 16.0513C31.8532 16.1367 31.7252 16.1793 31.5652 16.1793H29.4212C29.2612 16.1793 29.1492 16.1367 29.0852 16.0513C29.0319 15.966 28.9945 15.8753 28.9732 15.7793L28.3652 12.5473L26.5252 15.7793C26.4719 15.8753 26.3972 15.966 26.3012 16.0513C26.2052 16.1367 26.0772 16.1793 25.9172 16.1793H23.8532ZM39.668 16.3393C38.74 16.3393 37.9613 16.19 37.332 15.8913C36.7133 15.582 36.2866 15.1127 36.052 14.4833C35.8173 13.8433 35.8013 13.0273 36.004 12.0353C36.0146 12.014 36.02 11.9927 36.02 11.9713C36.02 11.95 36.0253 11.934 36.036 11.9233C36.2493 11.006 36.6066 10.2327 37.108 9.60332C37.62 8.97399 38.2493 8.49932 38.996 8.17932C39.7533 7.85932 40.5853 7.69932 41.492 7.69932C42.5373 7.69932 43.348 7.90199 43.924 8.30732C44.5106 8.70199 44.8946 9.22999 45.076 9.89132C45.268 10.542 45.284 11.262 45.124 12.0513L45.028 12.5313C45.0066 12.6487 44.9426 12.75 44.836 12.8353C44.7293 12.9207 44.6173 12.9633 44.5 12.9633H39.732C39.732 12.974 39.7266 12.9847 39.716 12.9953C39.716 13.006 39.716 13.022 39.716 13.0433C39.6733 13.2567 39.652 13.438 39.652 13.5873C39.6626 13.726 39.7053 13.8327 39.78 13.9073C39.8653 13.982 39.9826 14.0193 40.132 14.0193C40.196 14.0193 40.2546 14.0087 40.308 13.9873C40.3613 13.966 40.4146 13.934 40.468 13.8913C40.5213 13.838 40.5853 13.7847 40.66 13.7313C40.7773 13.6353 40.868 13.5767 40.932 13.5553C41.0066 13.5233 41.108 13.5073 41.236 13.5073H44.26C44.3666 13.5073 44.4466 13.5393 44.5 13.6033C44.5533 13.6673 44.564 13.7527 44.532 13.8593C44.4786 14.062 44.3346 14.3073 44.1 14.5953C43.8653 14.8727 43.54 15.1447 43.124 15.4113C42.7186 15.678 42.2226 15.902 41.636 16.0833C41.06 16.254 40.404 16.3393 39.668 16.3393ZM40.164 10.9633H41.444V10.9473C41.4973 10.7127 41.5133 10.5207 41.492 10.3713C41.4706 10.222 41.4173 10.1153 41.332 10.0513C41.2573 9.97665 41.1506 9.93932 41.012 9.93932C40.8733 9.93932 40.7453 9.97665 40.628 10.0513C40.5213 10.1153 40.4306 10.222 40.356 10.3713C40.2813 10.5207 40.2173 10.7127 40.164 10.9473V10.9633ZM45.5575 16.1793C45.4401 16.1793 45.3495 16.1367 45.2855 16.0513C45.2108 15.966 45.1841 15.8647 45.2055 15.7473L46.7895 8.29132C46.8108 8.17399 46.8748 8.07265 46.9815 7.98732C47.0881 7.90199 47.2001 7.85932 47.3175 7.85932H50.1175C50.2348 7.85932 50.3255 7.90199 50.3895 7.98732C50.4535 8.07265 50.4748 8.17399 50.4535 8.29132L50.3415 8.85132C50.6081 8.56332 50.9228 8.32865 51.2855 8.14732C51.6481 7.95532 52.1281 7.85932 52.7255 7.85932H53.8135C53.9308 7.85932 54.0215 7.90199 54.0855 7.98732C54.1495 8.07265 54.1708 8.17399 54.1495 8.29132L53.6215 10.7873C53.6001 10.9047 53.5361 11.006 53.4295 11.0913C53.3228 11.1767 53.2108 11.2193 53.0935 11.2193H51.0295C50.7095 11.2193 50.4535 11.2993 50.2615 11.4593C50.0801 11.6193 49.9521 11.8593 49.8775 12.1793L49.1095 15.7473C49.0881 15.8647 49.0241 15.966 48.9175 16.0513C48.8215 16.1367 48.7148 16.1793 48.5975 16.1793H45.5575ZM57.9023 16.3393C56.9743 16.3393 56.1957 16.19 55.5663 15.8913C54.9477 15.582 54.521 15.1127 54.2863 14.4833C54.0517 13.8433 54.0357 13.0273 54.2383 12.0353C54.249 12.014 54.2543 11.9927 54.2543 11.9713C54.2543 11.95 54.2597 11.934 54.2703 11.9233C54.4837 11.006 54.841 10.2327 55.3423 9.60332C55.8543 8.97399 56.4837 8.49932 57.2303 8.17932C57.9877 7.85932 58.8197 7.69932 59.7263 7.69932C60.7717 7.69932 61.5823 7.90199 62.1583 8.30732C62.745 8.70199 63.129 9.22999 63.3103 9.89132C63.5023 10.542 63.5183 11.262 63.3583 12.0513L63.2623 12.5313C63.241 12.6487 63.177 12.75 63.0703 12.8353C62.9637 12.9207 62.8517 12.9633 62.7343 12.9633H57.9663C57.9663 12.974 57.961 12.9847 57.9503 12.9953C57.9503 13.006 57.9503 13.022 57.9503 13.0433C57.9077 13.2567 57.8863 13.438 57.8863 13.5873C57.897 13.726 57.9397 13.8327 58.0143 13.9073C58.0997 13.982 58.217 14.0193 58.3663 14.0193C58.4303 14.0193 58.489 14.0087 58.5423 13.9873C58.5957 13.966 58.649 13.934 58.7023 13.8913C58.7557 13.838 58.8197 13.7847 58.8943 13.7313C59.0117 13.6353 59.1023 13.5767 59.1663 13.5553C59.241 13.5233 59.3423 13.5073 59.4703 13.5073H62.4943C62.601 13.5073 62.681 13.5393 62.7343 13.6033C62.7877 13.6673 62.7983 13.7527 62.7663 13.8593C62.713 14.062 62.569 14.3073 62.3343 14.5953C62.0997 14.8727 61.7743 15.1447 61.3583 15.4113C60.953 15.678 60.457 15.902 59.8703 16.0833C59.2943 16.254 58.6383 16.3393 57.9023 16.3393ZM58.3983 10.9633H59.6783V10.9473C59.7317 10.7127 59.7477 10.5207 59.7263 10.3713C59.705 10.222 59.6517 10.1153 59.5663 10.0513C59.4917 9.97665 59.385 9.93932 59.2463 9.93932C59.1077 9.93932 58.9797 9.97665 58.8623 10.0513C58.7557 10.1153 58.665 10.222 58.5903 10.3713C58.5157 10.5207 58.4517 10.7127 58.3983 10.9473V10.9633ZM66.6398 16.3393C66.1812 16.3393 65.7545 16.2753 65.3598 16.1473C64.9758 16.0087 64.6505 15.7953 64.3838 15.5073C64.1278 15.2087 63.9518 14.8247 63.8558 14.3553C63.7598 13.886 63.7652 13.3153 63.8718 12.6433C63.9252 12.398 63.9678 12.1847 63.9998 12.0033C64.0425 11.822 64.0905 11.614 64.1438 11.3793C64.3038 10.75 64.5118 10.206 64.7678 9.74732C65.0345 9.27799 65.3438 8.89399 65.6958 8.59532C66.0478 8.29665 66.4318 8.07265 66.8478 7.92332C67.2638 7.77399 67.7012 7.69932 68.1598 7.69932C68.6078 7.69932 69.0238 7.76865 69.4078 7.90732C69.8025 8.03532 70.1012 8.21665 70.3038 8.45132L70.9758 5.25132C70.9972 5.13399 71.0558 5.03265 71.1518 4.94732C71.2585 4.86199 71.3705 4.81932 71.4878 4.81932H74.4478C74.5652 4.81932 74.6558 4.86199 74.7198 4.94732C74.7945 5.03265 74.8212 5.13399 74.7998 5.25132L72.5598 15.7473C72.5385 15.8647 72.4745 15.966 72.3678 16.0513C72.2718 16.1367 72.1652 16.1793 72.0478 16.1793H69.3278C69.2105 16.1793 69.1145 16.1367 69.0398 16.0513C68.9758 15.966 68.9545 15.8647 68.9758 15.7473L69.0558 15.3793C68.7358 15.6673 68.3892 15.902 68.0158 16.0833C67.6532 16.254 67.1945 16.3393 66.6398 16.3393ZM68.4158 13.4753C68.6185 13.4753 68.7838 13.438 68.9118 13.3633C69.0398 13.2887 69.1412 13.182 69.2158 13.0433C69.3012 12.9047 69.3705 12.7393 69.4238 12.5473C69.4878 12.302 69.5358 12.1047 69.5678 11.9553C69.5998 11.7953 69.6318 11.598 69.6638 11.3633C69.6958 11.1927 69.6958 11.0487 69.6638 10.9313C69.6318 10.814 69.5625 10.7233 69.4558 10.6593C69.3598 10.5953 69.2212 10.5633 69.0398 10.5633C68.8478 10.5633 68.6878 10.6007 68.5598 10.6753C68.4318 10.75 68.3305 10.8567 68.2558 10.9953C68.1812 11.134 68.1118 11.2993 68.0478 11.4913C68.0052 11.6513 67.9625 11.8273 67.9198 12.0193C67.8772 12.2113 67.8452 12.3873 67.8238 12.5473C67.8025 12.7393 67.7972 12.9047 67.8078 13.0433C67.8292 13.182 67.8878 13.2887 67.9838 13.3633C68.0798 13.438 68.2238 13.4753 68.4158 13.4753ZM83.0176 16.3393C82.4629 16.3393 81.9829 16.254 81.5776 16.0833C81.1829 15.902 80.8896 15.6673 80.6976 15.3793L80.6176 15.7473C80.5963 15.8647 80.5323 15.966 80.4256 16.0513C80.3296 16.1367 80.2229 16.1793 80.1056 16.1793H77.3856C77.2683 16.1793 77.1776 16.1367 77.1136 16.0513C77.0389 15.966 77.0123 15.8647 77.0336 15.7473L79.2736 5.25132C79.2949 5.13399 79.3536 5.03265 79.4496 4.94732C79.5563 4.86199 79.6683 4.81932 79.7856 4.81932H82.7456C82.8629 4.81932 82.9536 4.86199 83.0176 4.94732C83.0923 5.03265 83.1189 5.13399 83.0976 5.25132L82.4096 8.45132C82.7189 8.21665 83.0389 8.03532 83.3696 7.90732C83.7003 7.76865 84.0896 7.69932 84.5376 7.69932C85.0069 7.69932 85.4336 7.77399 85.8176 7.92332C86.2016 8.07265 86.5216 8.29665 86.7776 8.59532C87.0443 8.89399 87.2256 9.27799 87.3216 9.74732C87.4283 10.206 87.4229 10.75 87.3056 11.3793C87.2629 11.614 87.2203 11.822 87.1776 12.0033C87.1456 12.1847 87.0976 12.398 87.0336 12.6433C86.8096 13.5287 86.5003 14.2433 86.1056 14.7873C85.7109 15.3313 85.2523 15.726 84.7296 15.9713C84.2069 16.2167 83.6363 16.3393 83.0176 16.3393ZM82.1376 13.4753C82.3403 13.4753 82.5003 13.438 82.6176 13.3633C82.7456 13.2887 82.8469 13.182 82.9216 13.0433C83.0069 12.9047 83.0816 12.7393 83.1456 12.5473C83.1989 12.3873 83.2469 12.2113 83.2896 12.0193C83.3323 11.8273 83.3589 11.6513 83.3696 11.4913C83.3909 11.2993 83.3909 11.134 83.3696 10.9953C83.3483 10.8567 83.2896 10.75 83.1936 10.6753C83.1083 10.6007 82.9643 10.5633 82.7616 10.5633C82.5803 10.5633 82.4256 10.5953 82.2976 10.6593C82.1696 10.7233 82.0629 10.814 81.9776 10.9313C81.9029 11.0487 81.8389 11.1927 81.7856 11.3633C81.7216 11.598 81.6736 11.7953 81.6416 11.9553C81.6096 12.1047 81.5776 12.302 81.5456 12.5473C81.5136 12.7393 81.5083 12.9047 81.5296 13.0433C81.5509 13.182 81.6096 13.2887 81.7056 13.3633C81.8016 13.438 81.9456 13.4753 82.1376 13.4753ZM88.0706 19.2193C87.9426 19.2193 87.8519 19.1607 87.7986 19.0433C87.7559 18.9367 87.7719 18.83 87.8466 18.7233L89.7826 15.6513L88.2306 8.35532C88.2093 8.22732 88.2413 8.11532 88.3266 8.01932C88.4226 7.91265 88.5559 7.85932 88.7266 7.85932H91.2706C91.4306 7.85932 91.5373 7.90199 91.5906 7.98732C91.6546 8.07265 91.6919 8.15799 91.7026 8.24332L92.3266 11.8913L94.5346 8.24332C94.5879 8.14732 94.6626 8.06199 94.7586 7.98732C94.8653 7.90199 94.9986 7.85932 95.1586 7.85932H97.9906C98.1399 7.85932 98.2306 7.91799 98.2626 8.03532C98.2946 8.14199 98.2839 8.24865 98.2306 8.35532L91.4946 18.8353C91.4413 18.9313 91.3613 19.0167 91.2546 19.0913C91.1479 19.1767 91.0146 19.2193 90.8546 19.2193H88.0706Z" fill="#3A2986"/>
<defs>
<clipPath id="clip0_17_650">
<rect width="116" height="20" fill="white" transform="translate(109.525 0.679321)"/>
</clipPath>
</defs>
</svg>
