<svg width="24" height="24" viewBox="0 0 24 24" fill="none" xmlns="http://www.w3.org/2000/svg">
  <path
    d="M17.7495 13.9994C18.9922 13.9994 19.9995 15.0068 19.9995 16.2494V17.1545C19.9995 18.2482 19.5221 19.2874 18.6922 19.9998C17.1268 21.3437 14.8865 22.0006 11.9965 22.0006C9.10696 22.0006 6.86814 21.344 5.30527 20.0003C4.47665 19.2879 4 18.2495 4 17.1567V16.2494C4 15.0068 5.00736 13.9994 6.25 13.9994H17.7495ZM17.7495 15.4994H6.25C5.83578 15.4994 5.5 15.8352 5.5 16.2494V17.1567C5.5 17.8124 5.78599 18.4354 6.28316 18.8629C7.54125 19.9445 9.43726 20.5006 11.9965 20.5006C14.5564 20.5006 16.4543 19.9442 17.7152 18.8617C18.213 18.4342 18.4995 17.8107 18.4995 17.1545V16.2494C18.4995 15.8352 18.1637 15.4994 17.7495 15.4994ZM11.895 2.00685L11.9968 2C12.3765 2 12.6903 2.28215 12.7399 2.64823L12.7468 2.75L12.746 3.499L16.2465 3.49951C17.4891 3.49951 18.4965 4.50687 18.4965 5.74951V10.2541C18.4965 11.4967 17.4891 12.5041 16.2465 12.5041H7.74645C6.50381 12.5041 5.49645 11.4967 5.49645 10.2541V5.74951C5.49645 4.50687 6.50381 3.49951 7.74645 3.49951L11.246 3.499L11.2468 2.75C11.2468 2.3703 11.5289 2.05651 11.895 2.00685ZM16.2465 4.99951H7.74645C7.33224 4.99951 6.99645 5.33529 6.99645 5.74951V10.2541C6.99645 10.6683 7.33224 11.0041 7.74645 11.0041H16.2465C16.6607 11.0041 16.9965 10.6683 16.9965 10.2541V5.74951C16.9965 5.33529 16.6607 4.99951 16.2465 4.99951ZM9.74574 6.49951C10.4357 6.49951 10.995 7.05883 10.995 7.74879C10.995 8.43876 10.4357 8.99808 9.74574 8.99808C9.05578 8.99808 8.49645 8.43876 8.49645 7.74879C8.49645 7.05883 9.05578 6.49951 9.74574 6.49951ZM14.2385 6.49951C14.9285 6.49951 15.4878 7.05883 15.4878 7.74879C15.4878 8.43876 14.9285 8.99808 14.2385 8.99808C13.5485 8.99808 12.9892 8.43876 12.9892 7.74879C12.9892 7.05883 13.5485 6.49951 14.2385 6.49951Z"
    fill="#3A2986"/>
</svg>
