<svg width="24" height="24" viewBox="0 0 24 24" fill="none" xmlns="http://www.w3.org/2000/svg">
<path d="M12.3726 2C13.1066 2.00846 13.8377 2.09326 14.5541 2.25304C14.8668 2.32279 15.1007 2.58351 15.1362 2.90196L15.3064 4.42881C15.3835 5.12986 15.9754 5.66084 16.681 5.66158C16.8707 5.66188 17.0583 5.62238 17.2336 5.54483L18.6342 4.92956C18.9255 4.80159 19.2659 4.87136 19.4833 5.10362C20.4955 6.18464 21.2493 7.48115 21.6881 8.89558C21.7827 9.20058 21.6738 9.53203 21.4168 9.7215L20.1753 10.6366C19.8211 10.8968 19.612 11.31 19.612 11.7495C19.612 12.1889 19.8211 12.6021 20.1761 12.8629L21.4186 13.7783C21.6757 13.9677 21.7847 14.2992 21.6901 14.6043C21.2515 16.0185 20.4981 17.3149 19.4865 18.3961C19.2693 18.6283 18.9292 18.6983 18.6379 18.5706L17.2316 17.9545C16.8292 17.7784 16.3672 17.8042 15.9869 18.024C15.6067 18.2437 15.3537 18.6312 15.3054 19.0677L15.1363 20.5944C15.1014 20.9092 14.8726 21.1682 14.5644 21.2415C13.116 21.5861 11.6069 21.5861 10.1584 21.2415C9.85026 21.1682 9.6214 20.9092 9.58653 20.5944L9.41771 19.07C9.36812 18.6343 9.11469 18.248 8.73477 18.029C8.35486 17.81 7.89355 17.7843 7.49255 17.9594L6.08592 18.5756C5.79457 18.7033 5.45438 18.6333 5.23713 18.4009C4.22497 17.3185 3.47154 16.0205 3.03355 14.6048C2.93921 14.2999 3.04821 13.9686 3.3052 13.7793L4.54853 12.8633C4.90267 12.6031 5.11182 12.1899 5.11182 11.7505C5.11182 11.311 4.90267 10.8978 4.54806 10.6373L3.30551 9.72285C3.04815 9.53345 2.93905 9.20178 3.03372 8.89658C3.47247 7.48215 4.22629 6.18564 5.23848 5.10462C5.45594 4.87236 5.79629 4.80259 6.08759 4.93056L7.48797 5.54572C7.89091 5.72256 8.35415 5.69585 8.73612 5.47269C9.11644 5.25209 9.36964 4.86422 9.41852 4.42764L9.58859 2.90196C9.62411 2.58335 9.85821 2.32254 10.1712 2.25294C10.8885 2.09342 11.6204 2.00865 12.3726 2ZM12.3728 3.4999C11.9187 3.50524 11.466 3.54443 11.0182 3.61702L10.9093 4.59418C10.8075 5.50368 10.2804 6.31102 9.49077 6.76903C8.69632 7.23317 7.72771 7.28903 6.88493 6.91917L5.98664 6.52456C5.41471 7.21873 4.95949 8.00135 4.63887 8.84168L5.43667 9.42879C6.17548 9.9716 6.61182 10.8337 6.61182 11.7505C6.61182 12.6672 6.17548 13.5293 5.43745 14.0715L4.6384 14.6602C4.95874 15.502 5.41403 16.2861 5.98635 16.9816L6.89148 16.5851C7.72958 16.2192 8.69159 16.2727 9.48388 16.7294C10.2762 17.1861 10.8047 17.9917 10.9084 18.9026L11.0174 19.8865C11.907 20.0378 12.8159 20.0378 13.7055 19.8865L13.8145 18.9027C13.9153 17.9921 14.4432 17.1837 15.2364 16.7253C16.0296 16.2668 16.9936 16.213 17.8332 16.5805L18.7376 16.9767C19.3094 16.2823 19.7645 15.4995 20.0851 14.659L19.2871 14.0711C18.5483 13.5283 18.112 12.6662 18.112 11.7495C18.112 10.8327 18.5483 9.9706 19.2862 9.42847L20.0831 8.84109C19.7625 8.00061 19.3072 7.21784 18.7352 6.52356L17.8387 6.91737C17.4734 7.07901 17.0782 7.1622 16.6791 7.16158C15.2094 7.16004 13.9759 6.05355 13.8155 4.59383L13.7066 3.6167C13.2611 3.5442 12.813 3.50512 12.3728 3.4999ZM12.3601 7.99995C14.4312 7.99995 16.1101 9.67888 16.1101 11.75C16.1101 13.821 14.4312 15.5 12.3601 15.5C10.289 15.5 8.61005 13.821 8.61005 11.75C8.61005 9.67888 10.289 7.99995 12.3601 7.99995ZM12.3601 9.49995C11.1175 9.49995 10.1101 10.5073 10.1101 11.75C10.1101 12.9926 11.1175 14 12.3601 14C13.6027 14 14.6101 12.9926 14.6101 11.75C14.6101 10.5073 13.6027 9.49995 12.3601 9.49995Z" fill="#9895ba"/>
</svg>
