<svg width="24" height="24" viewBox="0 0 24 24" fill="none" xmlns="http://www.w3.org/2000/svg">
<path d="M13.209 2.75257C12.7138 1.74916 11.283 1.74914 10.7878 2.75254L8.42988 7.53021L3.15735 8.29636C2.05005 8.45726 1.60791 9.81799 2.40916 10.5991L6.2244 14.318L5.32374 19.5692C5.13459 20.672 6.29213 21.513 7.28252 20.9924L12.3474 18.3296C12.7141 18.1368 12.855 17.6834 12.6623 17.3167C12.4695 16.9501 12.016 16.8091 11.6494 17.0019L6.85353 19.5232L7.71614 14.4938C7.79125 14.0559 7.64606 13.6091 7.32788 13.2989L3.67382 9.73709L8.72361 9.00328C9.16332 8.93939 9.54344 8.66322 9.74008 8.26478L11.9984 3.68894L14.487 8.73189C14.6134 8.9879 14.8741 9.14999 15.1596 9.14999H21.2496C21.6638 9.14999 21.9996 8.8142 21.9996 8.39999C21.9996 7.98577 21.6638 7.64999 21.2496 7.64999H15.6258L13.209 2.75257ZM14.5 12.4C14.5 11.9858 14.8358 11.65 15.25 11.65H21.25C21.6642 11.65 22 11.9858 22 12.4C22 12.8142 21.6642 13.15 21.25 13.15H15.25C14.8358 13.15 14.5 12.8142 14.5 12.4ZM14.5 16.4C14.5 15.9858 14.8358 15.65 15.25 15.65H21.25C21.6642 15.65 22 15.9858 22 16.4C22 16.8142 21.6642 17.15 21.25 17.15H15.25C14.8358 17.15 14.5 16.8142 14.5 16.4Z" fill="#9895ba"/>
</svg>
