<svg width="24" height="24" viewBox="0 0 24 24" fill="none" xmlns="http://www.w3.org/2000/svg">
<path d="M14.4167 13.9583C14.4167 13.6132 14.6965 13.3333 15.0417 13.3333H16.7083C17.0535 13.3333 17.3333 13.6132 17.3333 13.9583C17.3333 14.3035 17.0535 14.5833 16.7083 14.5833H15.0417C14.6965 14.5833 14.4167 14.3035 14.4167 13.9583ZM4 6.66667H4.01144C4.11508 5.72917 4.90988 5 5.875 5H15.4583C16.4938 5 17.3333 5.83947 17.3333 6.875V7.57247C18.5278 7.85462 19.4167 8.92768 19.4167 10.2083V17.2917C19.4167 18.7874 18.2041 20 16.7083 20H6.70833C5.21257 20 4 18.7874 4 17.2917V6.66667ZM16.7083 8.75H5.25V17.2917C5.25 18.0971 5.90292 18.75 6.70833 18.75H16.7083C17.5138 18.75 18.1667 18.0971 18.1667 17.2917V10.2083C18.1667 9.40292 17.5138 8.75 16.7083 8.75ZM16.0833 7.5V6.875C16.0833 6.52982 15.8035 6.25 15.4583 6.25H5.875C5.52983 6.25 5.25 6.52982 5.25 6.875C5.25 7.22018 5.52983 7.5 5.875 7.5H16.0833Z" fill="#3A2986"/>
</svg>
